<?xml version="1.0"?>
 <svg xmlns:ooo="http://xml.openoffice.org/svg/export" xmlns:dc="http://purl.org/dc/elements/1.1/" xmlns:cc="http://creativecommons.org/ns#" xmlns:rdf="http://www.w3.org/1999/02/22-rdf-syntax-ns#" xmlns:svg="http://www.w3.org/2000/svg" xmlns="http://www.w3.org/2000/svg" xmlns:sodipodi="http://sodipodi.sourceforge.net/DTD/sodipodi-0.dtd" xmlns:inkscape="http://www.inkscape.org/namespaces/inkscape" version="1.2" width="42.52" height="28.27" viewBox="0 0 4252 2827" preserveAspectRatio="xMidYMid" xml:space="preserve" id="svg321" sodipodi:docname="logoHVCNprueba.svg" style="fill-rule:evenodd;stroke-width:28.22200012;stroke-linejoin:round" inkscape:version="0.92.5 (2060ec1f9f, 2020-04-08)"><metadata id="metadata325"><rdf:rdf><cc:work rdf:about=""><dc:format>image/svg+xml</dc:format><dc:type rdf:resource="http://purl.org/dc/dcmitype/StillImage"></dc:type><dc:title></dc:title></cc:work></rdf:rdf></metadata><sodipodi:namedview pagecolor="#ffffff" bordercolor="#666666" borderopacity="1" objecttolerance="10" gridtolerance="10" guidetolerance="10" inkscape:pageopacity="0" inkscape:pageshadow="2" inkscape:window-width="1920" inkscape:window-height="948" id="namedview323" showgrid="false" fit-margin-top="0" fit-margin-left="0" fit-margin-right="0" fit-margin-bottom="0" inkscape:zoom="4" inkscape:cx="28.616624" inkscape:cy="27.790755" inkscape:window-x="0" inkscape:window-y="27" inkscape:window-maximized="1" inkscape:current-layer="svg321"></sodipodi:namedview> <defs class="ClipPathGroup" id="defs8"> <clipPath id="presentation_clip_path" clipPathUnits="userSpaceOnUse"> <rect x="0" y="0" width="21000" height="29700" id="rect2"></rect> </clipPath> <clipPath id="presentation_clip_path_shrink" clipPathUnits="userSpaceOnUse"> <rect x="21" y="29" width="20958" height="29641" id="rect5"></rect> </clipPath> </defs> <defs class="TextShapeIndex" id="defs12"> <g ooo:slide="id1" ooo:id-list="id3 id4 id5 id6 id7 id8 id9 id10 id11 id12 id13 id14 id15 id16 id17 id18 id19 id20 id21 id22 id23 id24 id25 id26 id27 id28 id29 id30 id31 id32 id33 id34 id35 id36 id37 id38" id="g10"></g> </defs> <defs class="EmbeddedBulletChars" id="defs44"> <g id="bullet-char-template-57356" transform="matrix(4.8828125e-4,0,0,-4.8828125e-4,0,0)"> <path d="M 580,1141 1163,571 580,0 -4,571 Z" id="path14" inkscape:connector-curvature="0"></path> </g> <g id="bullet-char-template-57354" transform="matrix(4.8828125e-4,0,0,-4.8828125e-4,0,0)"> <path d="M 8,1128 H 1137 V 0 H 8 Z" id="path17" inkscape:connector-curvature="0"></path> </g> <g id="bullet-char-template-10146" transform="matrix(4.8828125e-4,0,0,-4.8828125e-4,0,0)"> <path d="M 174,0 602,739 174,1481 1456,739 Z M 1358,739 309,1346 659,739 Z" id="path20" inkscape:connector-curvature="0"></path> </g> <g id="bullet-char-template-10132" transform="matrix(4.8828125e-4,0,0,-4.8828125e-4,0,0)"> <path d="M 2015,739 1276,0 H 717 l 543,543 H 174 v 393 h 1086 l -543,545 h 557 z" id="path23" inkscape:connector-curvature="0"></path> </g> <g id="bullet-char-template-10007" transform="matrix(4.8828125e-4,0,0,-4.8828125e-4,0,0)"> <path d="m 0,-2 c -7,16 -16,29 -25,39 l 381,530 c -94,256 -141,385 -141,387 0,25 13,38 40,38 9,0 21,-2 34,-5 21,4 42,12 65,25 l 27,-13 111,-251 280,301 64,-25 24,25 c 21,-10 41,-24 62,-43 C 886,937 835,863 770,784 769,783 710,716 594,584 L 774,223 c 0,-27 -21,-55 -63,-84 l 16,-20 C 717,90 699,76 672,76 641,76 570,178 457,381 L 164,-76 c -22,-34 -53,-51 -92,-51 -42,0 -63,17 -64,51 -7,9 -10,24 -10,44 0,9 1,19 2,30 z" id="path26" inkscape:connector-curvature="0"></path> </g> <g id="bullet-char-template-10004" transform="matrix(4.8828125e-4,0,0,-4.8828125e-4,0,0)"> <path d="M 285,-33 C 182,-33 111,30 74,156 52,228 41,333 41,471 c 0,78 14,145 41,201 34,71 87,106 158,106 53,0 88,-31 106,-94 l 23,-176 c 8,-64 28,-97 59,-98 l 735,706 c 11,11 33,17 66,17 42,0 63,-15 63,-46 V 965 c 0,-36 -10,-64 -30,-84 L 442,47 C 390,-6 338,-33 285,-33 Z" id="path29" inkscape:connector-curvature="0"></path> </g> <g id="bullet-char-template-9679" transform="matrix(4.8828125e-4,0,0,-4.8828125e-4,0,0)"> <path d="M 813,0 C 632,0 489,54 383,161 276,268 223,411 223,592 c 0,181 53,324 160,431 106,107 249,161 430,161 179,0 323,-54 432,-161 108,-107 162,-251 162,-431 0,-180 -54,-324 -162,-431 C 1136,54 992,0 813,0 Z" id="path32" inkscape:connector-curvature="0"></path> </g> <g id="bullet-char-template-8226" transform="matrix(4.8828125e-4,0,0,-4.8828125e-4,0,0)"> <path d="m 346,457 c -73,0 -137,26 -191,78 -54,51 -81,114 -81,188 0,73 27,136 81,188 54,52 118,78 191,78 73,0 134,-26 185,-79 51,-51 77,-114 77,-187 0,-75 -25,-137 -76,-188 -50,-52 -112,-78 -186,-78 z" id="path35" inkscape:connector-curvature="0"></path> </g> <g id="bullet-char-template-8211" transform="matrix(4.8828125e-4,0,0,-4.8828125e-4,0,0)"> <path d="M -4,459 H 1135 V 606 H -4 Z" id="path38" inkscape:connector-curvature="0"></path> </g> <g id="bullet-char-template-61548" transform="matrix(4.8828125e-4,0,0,-4.8828125e-4,0,0)"> <path d="m 173,740 c 0,163 58,303 173,419 116,115 255,173 419,173 163,0 302,-58 418,-173 116,-116 174,-256 174,-419 0,-163 -58,-303 -174,-418 C 1067,206 928,148 765,148 601,148 462,206 346,322 231,437 173,577 173,740 Z" id="path41" inkscape:connector-curvature="0"></path> </g> </defs> <g id="g49" transform="translate(-6937,-4167)"> <g id="id2" class="Master_Slide"> <g id="bg-id2" class="Background"></g> <g id="bo-id2" class="BackgroundObjects"></g> </g> </g> <g class="SlideGroup" id="g319" transform="translate(-6937,-4167)"> <g id="g317"> <g id="container-id1"> <g id="id1" class="Slide" clip-path="url(#presentation_clip_path)"> <g class="Page" id="g313"> <g class="com.sun.star.drawing.ClosedBezierShape" id="g58"> <g id="id3"> <rect class="BoundingBox" x="8577" y="4511" width="1104" height="1197" id="rect51" style="fill:none;stroke:none"></rect> <path d="m 9096,4521 c 0,0 -54,106 -118,149 -64,43 -153,118 -153,118 0,0 -115,161 -136,239 -22,79 -104,175 -104,175 0,0 176,238 215,260 39,21 224,213 224,213 l 96,25 161,-164 c 0,0 113,-167 156,-213 43,-46 164,-181 178,-203 14,-21 57,-117 57,-117 0,0 -71,-39 -146,-89 -74,-50 -213,-162 -213,-162 l -111,-121 z" id="path53" inkscape:connector-curvature="0" style="fill:#b0cdeb;stroke:none"></path> <path d="m 9096,4521 c 0,0 -54,106 -118,149 -64,43 -153,118 -153,118 0,0 -115,161 -136,239 -22,79 -104,175 -104,175 0,0 176,238 215,260 39,21 224,213 224,213 l 96,25 161,-164 c 0,0 113,-167 156,-213 43,-46 164,-181 178,-203 14,-21 57,-117 57,-117 0,0 -71,-39 -146,-89 -74,-50 -213,-162 -213,-162 l -111,-121 z" id="path55" inkscape:connector-curvature="0" style="fill:none;stroke:#231f20;stroke-width:11;stroke-linejoin:miter"></path> </g> </g> <g class="com.sun.star.drawing.ClosedBezierShape" id="g65"> <g id="id4"> <rect class="BoundingBox" x="9118" y="5033" width="829" height="932" id="rect60" style="fill:none;stroke:none"></rect> <path d="m 9690,5033 206,154 c 0,0 72,43 43,103 -28,60 -139,260 -139,260 l -128,156 -86,133 -82,125 -178,-72 -135,-99 -72,-80 125,-128 103,-160 142,-164 132,-163 z" id="path62" inkscape:connector-curvature="0" style="fill:#ffffff;stroke:none"></path> </g> </g> <g class="com.sun.star.drawing.ClosedBezierShape" id="g74"> <g id="id5"> <rect class="BoundingBox" x="8251" y="4270" width="847" height="974" id="rect67" style="fill:none;stroke:none"></rect> <path d="m 8799,4279 c 0,0 -113,224 -192,274 -79,50 -132,171 -153,182 -22,10 -178,128 -178,128 0,0 -46,103 7,131 53,29 185,172 185,172 l 67,68 c 0,0 108,-131 154,-211 46,-79 92,-171 135,-214 43,-43 140,-139 140,-139 l 125,-135 -147,-124 -104,-104 z" id="path69" inkscape:connector-curvature="0" style="fill:#ffffff;stroke:none"></path> <path d="m 8799,4279 c 0,0 -113,224 -192,274 -79,50 -132,171 -153,182 -22,10 -178,128 -178,128 0,0 -46,103 7,131 53,29 185,172 185,172 l 67,68 c 0,0 108,-131 154,-211 46,-79 92,-171 135,-214 43,-43 140,-139 140,-139 l 125,-135 -147,-124 -104,-104 z" id="path71" inkscape:connector-curvature="0" style="fill:none;stroke:#231f20;stroke-width:11;stroke-linejoin:miter"></path> </g> </g> <g class="com.sun.star.drawing.ClosedBezierShape" id="g83"> <g id="id6"> <rect class="BoundingBox" x="8315" y="5232" width="797" height="725" id="rect76" style="fill:none;stroke:none"></rect> <path d="m 8544,5240 c 0,0 -125,121 -178,153 -54,32 -65,121 0,157 64,36 259,236 259,236 l 148,113 74,50 214,-163 43,-79 -235,-186 -111,-128 -125,-89 z" id="path78" inkscape:connector-curvature="0" style="fill:#ef3e33;stroke:none"></path> <path d="m 8544,5240 c 0,0 -125,121 -178,153 -54,32 -65,121 0,157 64,36 259,236 259,236 l 148,113 74,50 214,-163 43,-79 -235,-186 -111,-128 -125,-89 z" id="path80" inkscape:connector-curvature="0" style="fill:none;stroke:#231f20;stroke-width:11;stroke-linejoin:miter"></path> </g> </g> <g class="com.sun.star.drawing.PolyPolygonShape" id="g92"> <g id="id7"> <rect class="BoundingBox" x="9112" y="4207" width="816" height="805" id="rect85" style="fill:none;stroke:none"></rect> <path d="m 9273,4218 -154,267 146,228 171,128 139,103 100,59 124,-172 119,-103 -236,-168 -178,-135 -171,-118 z" id="path87" inkscape:connector-curvature="0" style="fill:#ef3e33;stroke:none"></path> <path d="m 9273,4218 -154,267 146,228 171,128 139,103 100,59 124,-172 119,-103 -236,-168 -178,-135 -171,-118 z" id="path89" inkscape:connector-curvature="0" style="fill:none;stroke:#ef3e33;stroke-width:11;stroke-linejoin:miter"></path> </g> </g> <g class="com.sun.star.drawing.ClosedBezierShape" id="g101"> <g id="id8"> <rect class="BoundingBox" x="8213" y="4167" width="1757" height="1833" id="rect94" style="fill:none;stroke:none"></rect> <path d="m 9095,4492 c 0,0 -114,161 -200,228 -86,68 -74,54 -124,143 -50,89 -115,196 -147,249 -31,53 -60,114 -60,114 0,0 -21,-15 -89,35 -67,50 -135,135 -164,164 -28,28 8,75 68,117 60,43 214,218 288,261 75,43 108,68 139,89 32,22 15,93 68,64 53,-28 113,-99 156,-163 43,-64 108,-107 161,-162 53,-53 70,-96 113,-170 43,-75 100,-111 154,-185 53,-75 161,-182 193,-236 32,-53 114,-173 149,-231 36,-57 142,-74 96,-117 -46,-43 -113,-82 -156,-111 -43,-28 -86,-50 -146,-96 -62,-46 -90,-64 -151,-117 -60,-53 -85,-43 -124,-89 -39,-46 -39,-96 -61,-68 -21,29 -74,142 -96,193 -21,50 -67,88 -67,88 z" id="path96" inkscape:connector-curvature="0" style="fill:none;stroke:#00529f;stroke-width:72;stroke-linejoin:miter"></path> <path d="m 8792,4254 c 0,0 118,128 178,164 60,36 82,71 156,124 75,54 39,97 178,193 139,96 204,160 257,192 54,32 72,43 115,82 42,39 85,85 146,120 60,36 110,26 110,79 0,53 -46,135 -82,224 -35,89 -50,149 -117,207 -68,58 -92,143 -157,186 -65,42 -62,117 -94,124 -31,7 -82,-25 -142,-57 -60,-32 -132,-89 -206,-149 -75,-61 -139,-133 -221,-193 -82,-61 -68,-78 -142,-143 -75,-64 -93,-89 -157,-131 -64,-43 -86,-65 -139,-118 -53,-53 -79,-92 -132,-135 -53,-43 -132,-107 -74,-160 57,-54 231,-160 274,-224 42,-65 107,-154 153,-228 46,-75 60,-111 60,-111 z" id="path98" inkscape:connector-curvature="0" style="fill:none;stroke:#00529f;stroke-width:72;stroke-linejoin:miter"></path> </g> </g> <g class="com.sun.star.drawing.PolyPolygonShape" id="g108"> <g id="id9"> <rect class="BoundingBox" x="8477" y="6815" width="169" height="176" id="rect103" style="fill:none;stroke:none"></rect> <path d="m 8487,6815 h 153 v 35 l -98,103 h 102 v 37 h -167 v -36 l 98,-102 h -88 z" id="path105" inkscape:connector-curvature="0" style="fill:#231f20;stroke:none"></path> </g> </g> <g class="com.sun.star.drawing.PolyPolygonShape" id="g115"> <g id="id10"> <rect class="BoundingBox" x="8649" y="6815" width="192" height="176" id="rect110" style="fill:none;stroke:none"></rect> <path d="m 8775,6962 h -62 l -9,28 h -55 l 66,-175 h 60 l 65,175 h -56 z m -11,-38 -19,-64 -20,64 z" id="path112" inkscape:connector-curvature="0" style="fill:#231f20;stroke:none"></path> </g> </g> <g class="com.sun.star.drawing.PolyPolygonShape" id="g122"> <g id="id11"> <rect class="BoundingBox" x="8855" y="6815" width="199" height="176" id="rect117" style="fill:none;stroke:none"></rect> <path d="m 8855,6815 h 73 l 27,107 27,-107 h 71 v 175 h -45 v -134 l -34,134 h -40 l -33,-134 v 134 h -46 z" id="path119" inkscape:connector-curvature="0" style="fill:#231f20;stroke:none"></path> </g> </g> <g class="com.sun.star.drawing.ClosedBezierShape" id="g129"> <g id="id12"> <rect class="BoundingBox" x="9079" y="6811" width="183" height="183" id="rect124" style="fill:none;stroke:none"></rect> <path d="m 9079,6903 c 0,-29 8,-51 25,-67 16,-16 38,-24 66,-24 29,0 52,8 67,23 16,16 24,38 24,67 0,20 -3,37 -10,50 -7,13 -17,23 -30,31 -13,7 -29,10 -48,10 -20,0 -36,-3 -49,-9 -13,-6 -24,-16 -33,-30 -8,-13 -12,-30 -12,-51 z m 55,0 c 0,18 3,31 10,38 7,8 15,12 27,12 11,0 20,-4 27,-11 6,-8 9,-21 9,-41 0,-16 -3,-29 -10,-37 -6,-7 -15,-11 -27,-11 -11,0 -19,4 -26,11 -7,8 -10,22 -10,39 z" id="path126" inkscape:connector-curvature="0" style="fill:#231f20;stroke:none"></path> </g> </g> <g class="com.sun.star.drawing.ClosedBezierShape" id="g136"> <g id="id13"> <rect class="BoundingBox" x="9290" y="6815" width="173" height="176" id="rect131" style="fill:none;stroke:none"></rect> <path d="m 9290,6990 v -175 h 89 c 17,0 30,2 38,4 9,3 16,9 23,16 5,8 8,17 8,29 0,10 -2,19 -6,26 -4,7 -11,12 -18,17 -5,3 -11,5 -19,7 6,2 11,4 14,6 2,2 5,5 8,9 4,5 7,9 8,11 l 27,50 h -62 l -29,-53 c -3,-7 -7,-11 -9,-13 -4,-3 -9,-4 -14,-4 h -4 v 70 z m 54,-103 h 22 c 3,0 8,-1 15,-2 3,-1 6,-3 8,-6 3,-3 4,-6 4,-11 0,-6 -2,-10 -6,-13 -3,-3 -10,-5 -20,-5 h -23 z" id="path133" inkscape:connector-curvature="0" style="fill:#231f20;stroke:none"></path> </g> </g> <g class="com.sun.star.drawing.PolyPolygonShape" id="g143"> <g id="id14"> <rect class="BoundingBox" x="9460" y="6815" width="192" height="176" id="rect138" style="fill:none;stroke:none"></rect> <path d="m 9586,6962 h -61 l -9,28 h -56 l 67,-175 h 59 l 65,175 h -56 z m -11,-38 -19,-64 -19,64 z" id="path140" inkscape:connector-curvature="0" style="fill:#231f20;stroke:none"></path> </g> </g> <g class="com.sun.star.drawing.PolyPolygonShape" id="g150"> <g id="id15"> <rect class="BoundingBox" x="8396" y="6515" width="169" height="176" id="rect145" style="fill:none;stroke:none"></rect> <path d="m 8396,6515 h 55 v 62 h 59 v -62 h 54 v 175 h -54 v -70 h -59 v 70 h -55 z" id="path147" inkscape:connector-curvature="0" style="fill:#231f20;stroke:none"></path> </g> </g> <g class="com.sun.star.drawing.ClosedBezierShape" id="g157"> <g id="id16"> <rect class="BoundingBox" x="8591" y="6511" width="184" height="183" id="rect152" style="fill:none;stroke:none"></rect> <path d="m 8591,6603 c 0,-28 8,-50 24,-66 16,-17 38,-25 66,-25 29,0 52,8 69,25 15,15 23,37 23,65 0,20 -3,37 -10,50 -7,13 -17,23 -31,31 -13,7 -29,10 -48,10 -20,0 -36,-3 -49,-9 -13,-6 -24,-16 -32,-30 -8,-13 -12,-30 -12,-51 z m 54,1 c 0,17 3,30 10,37 7,8 15,12 27,12 11,0 20,-4 27,-11 6,-8 9,-21 9,-41 0,-16 -3,-28 -10,-36 -6,-7 -15,-11 -27,-11 -11,0 -19,4 -26,11 -7,8 -10,21 -10,39 z" id="path154" inkscape:connector-curvature="0" style="fill:#231f20;stroke:none"></path> </g> </g> <g class="com.sun.star.drawing.ClosedBezierShape" id="g164"> <g id="id17"> <rect class="BoundingBox" x="8792" y="6511" width="160" height="183" id="rect159" style="fill:none;stroke:none"></rect> <path d="m 8792,6633 51,-3 c 1,8 3,14 7,19 5,7 13,10 23,10 8,0 14,-2 18,-5 5,-4 7,-8 7,-13 0,-4 -2,-8 -7,-12 -4,-4 -13,-7 -27,-10 -24,-5 -41,-12 -51,-21 -10,-9 -15,-20 -15,-34 0,-9 3,-17 8,-25 5,-8 13,-14 23,-20 11,-5 25,-7 43,-7 24,0 41,4 52,14 12,8 19,21 21,39 l -52,3 c -1,-8 -4,-13 -8,-17 -4,-4 -10,-5 -18,-5 -6,0 -11,1 -14,4 -3,2 -5,5 -5,9 0,3 1,5 4,8 2,2 8,4 18,6 23,5 41,10 52,16 10,5 17,11 22,19 4,8 7,16 7,26 0,11 -3,21 -10,31 -6,9 -14,16 -25,21 -12,5 -27,7 -43,7 -30,0 -51,-5 -62,-17 -11,-11 -18,-26 -19,-43 z" id="path161" inkscape:connector-curvature="0" style="fill:#231f20;stroke:none"></path> </g> </g> <g class="com.sun.star.drawing.ClosedBezierShape" id="g171"> <g id="id18"> <rect class="BoundingBox" x="8976" y="6515" width="151" height="176" id="rect166" style="fill:none;stroke:none"></rect> <path d="m 8976,6515 h 91 c 20,0 34,5 44,15 10,9 15,23 15,40 0,17 -6,31 -16,41 -11,10 -27,15 -49,15 h -30 v 64 h -55 z m 55,76 h 14 c 10,0 18,-2 22,-6 4,-3 6,-8 6,-14 0,-5 -2,-10 -5,-14 -4,-3 -11,-5 -21,-5 h -16 z" id="path168" inkscape:connector-curvature="0" style="fill:#231f20;stroke:none"></path> </g> </g> <g class="com.sun.star.drawing.PolyPolygonShape" id="g178"> <g id="id19"> <rect class="BoundingBox" x="9155" y="6515" width="56" height="176" id="rect173" style="fill:none;stroke:none"></rect> <path d="m 9155,6690 h 55 v -175 h -55 z" id="path175" inkscape:connector-curvature="0" style="fill:#231f20;stroke:none"></path> </g> </g> <g class="com.sun.star.drawing.PolyPolygonShape" id="g185"> <g id="id20"> <rect class="BoundingBox" x="9235" y="6515" width="166" height="176" id="rect180" style="fill:none;stroke:none"></rect> <path d="m 9235,6515 h 165 v 44 h -55 v 131 h -54 v -131 h -56 z" id="path182" inkscape:connector-curvature="0" style="fill:#231f20;stroke:none"></path> </g> </g> <g class="com.sun.star.drawing.PolyPolygonShape" id="g192"> <g id="id21"> <rect class="BoundingBox" x="9393" y="6515" width="192" height="176" id="rect187" style="fill:none;stroke:none"></rect> <path d="m 9519,6662 h -62 l -9,28 h -55 l 66,-175 h 60 l 65,175 h -56 z m -11,-38 -19,-63 -20,63 z" id="path189" inkscape:connector-curvature="0" style="fill:#231f20;stroke:none"></path> </g> </g> <g class="com.sun.star.drawing.PolyPolygonShape" id="g199"> <g id="id22"> <rect class="BoundingBox" x="9600" y="6515" width="140" height="176" id="rect194" style="fill:none;stroke:none"></rect> <path d="m 9600,6515 h 55 v 133 h 84 v 42 h -139 z" id="path196" inkscape:connector-curvature="0" style="fill:#231f20;stroke:none"></path> </g> </g> <g class="com.sun.star.drawing.PolyPolygonShape" id="g206"> <g id="id23"> <rect class="BoundingBox" x="6937" y="6157" width="255" height="236" id="rect201" style="fill:none;stroke:none"></rect> <path d="m 6938,6157 h 75 l 52,168 52,-168 h 74 l -88,234 h -77 z" id="path203" inkscape:connector-curvature="0" style="fill:#231f20;stroke:none"></path> </g> </g> <g class="com.sun.star.drawing.PolyPolygonShape" id="g213"> <g id="id24"> <rect class="BoundingBox" x="7215" y="6157" width="75" height="236" id="rect208" style="fill:none;stroke:none"></rect> <path d="m 7216,6391 h 73 v -234 h -73 z" id="path210" inkscape:connector-curvature="0" style="fill:#231f20;stroke:none"></path> </g> </g> <g class="com.sun.star.drawing.ClosedBezierShape" id="g220"> <g id="id25"> <rect class="BoundingBox" x="7340" y="6157" width="231" height="236" id="rect215" style="fill:none;stroke:none"></rect> <path d="m 7340,6391 v -234 h 120 c 22,0 39,2 51,6 11,4 22,11 29,21 7,10 11,23 11,38 0,13 -3,24 -9,33 -5,9 -13,17 -23,23 -6,4 -15,7 -26,9 9,3 15,6 19,9 3,2 7,6 12,12 6,6 9,12 11,15 l 35,68 h -83 l -38,-71 c -5,-11 -9,-17 -13,-19 -5,-4 -11,-6 -18,-6 h -6 v 96 z m 72,-139 h 30 c 4,0 10,-2 19,-4 5,-1 9,-3 12,-7 3,-4 5,-8 5,-14 0,-7 -3,-13 -8,-17 -4,-4 -13,-6 -26,-6 h -32 z" id="path217" inkscape:connector-curvature="0" style="fill:#231f20;stroke:none"></path> </g> </g> <g class="com.sun.star.drawing.ClosedBezierShape" id="g227"> <g id="id26"> <rect class="BoundingBox" x="7578" y="6153" width="239" height="242" id="rect222" style="fill:none;stroke:none"></rect> <path d="m 7705,6306 v -48 h 111 v 99 c -22,14 -40,24 -57,30 -16,5 -35,7 -58,7 -27,0 -50,-4 -67,-14 -18,-9 -32,-23 -42,-42 -9,-18 -14,-40 -14,-64 0,-25 5,-47 16,-66 11,-20 26,-34 47,-44 15,-7 37,-11 63,-11 26,0 45,2 58,7 13,5 23,12 31,22 9,10 15,23 19,38 l -69,12 c -3,-8 -7,-15 -14,-20 -7,-5 -16,-7 -26,-7 -16,0 -29,6 -38,16 -9,11 -14,29 -14,52 0,26 5,43 14,54 10,11 23,16 40,16 8,0 15,-1 23,-3 7,-2 15,-6 25,-12 v -22 z" id="path224" inkscape:connector-curvature="0" style="fill:#231f20;stroke:none"></path> </g> </g> <g class="com.sun.star.drawing.PolyPolygonShape" id="g234"> <g id="id27"> <rect class="BoundingBox" x="7857" y="6157" width="198" height="236" id="rect229" style="fill:none;stroke:none"></rect> <path d="m 7857,6157 h 193 v 50 h -121 v 37 h 112 v 47 h -112 v 47 h 125 v 53 h -197 z" id="path231" inkscape:connector-curvature="0" style="fill:#231f20;stroke:none"></path> </g> </g> <g class="com.sun.star.drawing.PolyPolygonShape" id="g241"> <g id="id28"> <rect class="BoundingBox" x="8092" y="6157" width="224" height="236" id="rect236" style="fill:none;stroke:none"></rect> <path d="m 8092,6157 h 67 l 88,128 v -128 h 68 v 234 h -68 l -87,-129 v 129 h -68 z" id="path238" inkscape:connector-curvature="0" style="fill:#231f20;stroke:none"></path> </g> </g> <g class="com.sun.star.drawing.ClosedBezierShape" id="g248"> <g id="id29"> <rect class="BoundingBox" x="8471" y="6157" width="216" height="236" id="rect243" style="fill:none;stroke:none"></rect> <path d="m 8471,6157 h 108 c 21,0 38,3 51,9 13,5 23,13 32,24 8,11 14,23 18,37 4,15 6,30 6,45 0,25 -3,45 -9,59 -5,14 -13,25 -23,35 -10,9 -21,15 -33,18 -15,4 -30,7 -42,7 h -108 z m 73,53 v 128 h 17 c 15,0 26,-2 32,-5 7,-4 12,-10 15,-19 4,-8 6,-22 6,-40 0,-25 -4,-42 -12,-51 -8,-9 -22,-13 -40,-13 z" id="path245" inkscape:connector-curvature="0" style="fill:#231f20;stroke:none"></path> </g> </g> <g class="com.sun.star.drawing.PolyPolygonShape" id="g255"> <g id="id30"> <rect class="BoundingBox" x="8722" y="6157" width="198" height="236" id="rect250" style="fill:none;stroke:none"></rect> <path d="m 8722,6157 h 193 v 50 h -120 v 37 h 112 v 47 h -112 v 47 h 124 v 53 h -197 z" id="path252" inkscape:connector-curvature="0" style="fill:#231f20;stroke:none"></path> </g> </g> <g class="com.sun.star.drawing.PolyPolygonShape" id="g262"> <g id="id31"> <rect class="BoundingBox" x="9065" y="6157" width="186" height="236" id="rect257" style="fill:none;stroke:none"></rect> <path d="m 9065,6157 h 73 v 176 h 112 v 58 h -185 z" id="path259" inkscape:connector-curvature="0" style="fill:#231f20;stroke:none"></path> </g> </g> <g class="com.sun.star.drawing.PolyPolygonShape" id="g269"> <g id="id32"> <rect class="BoundingBox" x="9258" y="6157" width="255" height="236" id="rect264" style="fill:none;stroke:none"></rect> <path d="m 9424,6352 h -81 l -12,39 h -73 l 87,-234 h 79 l 88,234 h -76 z m -15,-51 -25,-84 -26,84 z" id="path266" inkscape:connector-curvature="0" style="fill:#231f20;stroke:none"></path> </g> </g> <g class="com.sun.star.drawing.ClosedBezierShape" id="g276"> <g id="id33"> <rect class="BoundingBox" x="9632" y="6153" width="230" height="242" id="rect271" style="fill:none;stroke:none"></rect> <path d="m 9798,6295 63,19 c -4,18 -11,33 -20,45 -9,11 -21,20 -34,26 -14,6 -31,9 -52,9 -25,0 -45,-3 -62,-11 -16,-7 -29,-20 -41,-38 -13,-19 -19,-42 -19,-71 0,-39 11,-68 32,-90 21,-21 50,-31 87,-31 29,0 52,6 69,18 17,12 29,31 38,55 l -64,15 c -2,-8 -4,-13 -7,-16 -4,-5 -9,-10 -15,-13 -5,-3 -12,-4 -19,-4 -16,0 -29,7 -38,20 -6,9 -9,25 -9,45 0,26 3,44 11,53 8,10 19,15 33,15 14,0 25,-4 32,-12 7,-8 12,-19 15,-34 z" id="path273" inkscape:connector-curvature="0" style="fill:#231f20;stroke:none"></path> </g> </g> <g class="com.sun.star.drawing.ClosedBezierShape" id="g283"> <g id="id34"> <rect class="BoundingBox" x="9885" y="6153" width="243" height="242" id="rect278" style="fill:none;stroke:none"></rect> <path d="m 9885,6274 c 0,-38 11,-67 32,-89 21,-21 50,-32 88,-32 39,0 69,10 90,31 22,22 32,51 32,89 0,27 -4,49 -14,66 -10,18 -23,31 -40,41 -18,10 -39,14 -65,14 -26,0 -48,-4 -65,-12 -17,-8 -31,-22 -42,-40 -10,-18 -16,-40 -16,-68 z m 72,1 c 0,23 4,40 13,50 9,10 21,16 36,16 15,0 27,-5 36,-16 8,-10 12,-28 12,-54 0,-21 -4,-37 -13,-48 -9,-10 -21,-15 -36,-15 -14,0 -26,5 -35,16 -9,10 -13,27 -13,51 z" id="path280" inkscape:connector-curvature="0" style="fill:#231f20;stroke:none"></path> </g> </g> <g class="com.sun.star.drawing.PolyPolygonShape" id="g290"> <g id="id35"> <rect class="BoundingBox" x="10165" y="6157" width="224" height="236" id="rect285" style="fill:none;stroke:none"></rect> <path d="m 10165,6157 h 68 l 87,128 v -128 h 68 v 234 h -68 l -86,-129 v 129 h -69 z" id="path287" inkscape:connector-curvature="0" style="fill:#231f20;stroke:none"></path> </g> </g> <g class="com.sun.star.drawing.ClosedBezierShape" id="g297"> <g id="id36"> <rect class="BoundingBox" x="10426" y="6153" width="229" height="242" id="rect292" style="fill:none;stroke:none"></rect> <path d="m 10591,6295 63,19 c -5,18 -11,33 -20,45 -9,11 -21,20 -34,26 -14,6 -31,9 -53,9 -25,0 -46,-3 -62,-11 -16,-7 -30,-20 -41,-38 -12,-19 -18,-42 -18,-71 0,-39 10,-68 31,-90 20,-21 49,-31 87,-31 30,0 53,6 70,18 17,12 29,31 37,55 l -63,15 c -2,-8 -5,-13 -7,-16 -4,-5 -9,-10 -15,-13 -6,-3 -13,-4 -20,-4 -17,0 -29,7 -38,20 -6,9 -10,25 -10,45 0,26 4,44 12,53 8,10 19,15 33,15 15,0 25,-4 32,-12 7,-8 12,-19 16,-34 z" id="path294" inkscape:connector-curvature="0" style="fill:#231f20;stroke:none"></path> </g> </g> <g class="com.sun.star.drawing.PolyPolygonShape" id="g304"> <g id="id37"> <rect class="BoundingBox" x="10687" y="6157" width="225" height="236" id="rect299" style="fill:none;stroke:none"></rect> <path d="m 10687,6157 h 72 v 81 h 79 v -81 h 73 v 234 h -73 v -96 h -79 v 96 h -72 z" id="path301" inkscape:connector-curvature="0" style="fill:#231f20;stroke:none"></path> </g> </g> <g class="com.sun.star.drawing.PolyPolygonShape" id="g311"> <g id="id38"> <rect class="BoundingBox" x="10934" y="6157" width="255" height="236" id="rect306" style="fill:none;stroke:none"></rect> <path d="m 11101,6352 h -81 l -13,39 h -73 l 88,-234 h 79 l 87,234 h -75 z m -15,-51 -25,-84 -26,84 z" id="path308" inkscape:connector-curvature="0" style="fill:#231f20;stroke:none"></path> </g> </g> </g> </g> </g> </g> </g> </svg>