<?xml version="1.0"?>
 <!-- Created with Inkscape (http://www.inkscape.org/) --> <svg id="svg175" width="38.232" height="44.053" inkscape:version="0.92.5 (2060ec1f9f, 2020-04-08)" sodipodi:docname="leon.svg" version="1.1" viewBox="0 0 38.232 44.053" xmlns="http://www.w3.org/2000/svg" xmlns:cc="http://creativecommons.org/ns#" xmlns:dc="http://purl.org/dc/elements/1.1/" xmlns:inkscape="http://www.inkscape.org/namespaces/inkscape" xmlns:rdf="http://www.w3.org/1999/02/22-rdf-syntax-ns#" xmlns:sodipodi="http://sodipodi.sourceforge.net/DTD/sodipodi-0.dtd"> <sodipodi:namedview id="base" bordercolor="#666666" borderopacity="1.0" fit-margin-bottom="0" fit-margin-left="0" fit-margin-right="0" fit-margin-top="0" inkscape:current-layer="layer1" inkscape:cx="91.58571" inkscape:cy="494.07865" inkscape:document-units="mm" inkscape:pageopacity="0.0" inkscape:pageshadow="2" inkscape:window-height="948" inkscape:window-maximized="1" inkscape:window-width="1920" inkscape:window-x="0" inkscape:window-y="27" inkscape:zoom="0.35" pagecolor="#ffffff" showgrid="false"></sodipodi:namedview> <metadata id="metadata172"> <rdf:rdf> <cc:work rdf:about=""> <dc:format>image/svg+xml</dc:format> <dc:type rdf:resource="http://purl.org/dc/dcmitype/StillImage"></dc:type> <dc:title></dc:title> </cc:work> </rdf:rdf> </metadata> <g id="layer1" transform="translate(-81.601 -235.51)" inkscape:groupmode="layer" inkscape:label="Capa 1"> <g id="g424" transform="matrix(.26458 0 0 .26458 9.6082 188.94)"> <rect id="rect6" class="st1" x="272.1" y="176" width="144.5" height="166.5" fill="#fff"></rect> <path id="path56" class="st2" d="m388.4 303.1c0.8 0.1 1.6 0.2 2.1 0.1v3.9s-3.2 0.3-4.1-0.3c0 0 0.3 4.6 0 6.8 0 0 3.9 1 4.8 1l-0.3 5.3s-3.6-0.7-4.5-1.6l-0.3 4.3s2.6 1.3 4.3 1l0.2 4.8s-4.5-0.3-5.7-1.6l-1.6 6.2h-29s-0.7-21.5 19.2-9.7c0 0 7.5-3.2-2.6-19.8 0 0-1.2 0.1-3.1-0.1-9.1-0.3-16.7-6.4-19.1-19.5 0 0-1.3-6.2-5.1-10.2v-0.1c-1.3-1.6-3.2-2.9-5.5-3.5 0 0 19-9.4 23.3-15.2 0 0-6.2 9.7 2.1 15.7 0 0 2.9 1.2 6.3 3.1 4.5 2.6 10.2 6.5 12.4 10.9 0 0 18.1 4.1 17.1-10.9v0.1c0-0.9-1.1-4.6-3.8-8.3-1.7-2.5-3.7-8.8-0.3-15.8 0 0 1.5-2.9 2.5-5.7 0.4-1.2 0.8-2.5 0.8-3.4l1 3.4 1.5 4.8s-4.4 3.5-3.1 10.7c0.9 5 5.3 8.8 6.4 14.2 0.4 2.9 0.3 7.4-2 10.9-1.3 2-8.3 9.1-20.5 5.1 0 0-1.9 8.4 4.1 13-0.2-0.1 1 0.2 2.5 0.4" fill="#81003f" inkscape:connector-curvature="0"></path> <g id="g384" fill="#81003f"> <path id="path40" class="st2" d="m320.9 303.1c1 0 2-0.1 3.2-0.2 0 0-7.4-11.4 0.7-20.8 0 0 5.8-10.2 17.1-2.9 0 0 4.8 4.8 5.1 12.6 0 0-6.7 0.3-10.5 11.3-1.5 4-2.6 9.6-2.7 17h-4.6s-1.2-3.9-0.6-5.9c0 0-6.2 1-7.8 0.3 0 0-1.2 4.3 0.3 5.8l-4.8-0.7s-1.2-3.6-1-5.8c0 0-2.6 0-4.1-1.3 0 0-2.7 2.9-2.7 5.6l-4.8-2.2s0.7-3.9 1.9-4.9c0 0-6.4-1.2-7.7-2.2l-1-5.6-4.5-23.7s12-3.5 16 8.2c0 0 1 6.5-0.2 12.1 0 0 0.6 3 7.9 3.5 1.5-0.2 3.1-0.1 4.8-0.2" inkscape:connector-curvature="0"></path> <path id="path42" class="st2" d="m319.1 273.4c0.3-1.3 1-3.2 1.8-4 0 0-7.4-1.2-8.4-1.9l-3.6 5.1-5.5-1.6 1.9-4.3-8.1-2.9-2.2 4.3-4.5-2.6 2.7-4.6-7.2-2.6-0.1-26.1s13.1-1.2 12.8 11.5v0.1c-0.1 2-0.4 4.5-1.3 7.3 0 0 11 2.9 14.8 1 0 0 10.3 14 15.1 16.6 0 0-1.6 1.9-2.9 4.8v-0.1c-0.2 0.4-0.4 1-0.6 1.5h-5.1c0.1 0 0.2-0.7 0.4-1.5" inkscape:connector-curvature="0"></path> <path id="path44" class="st2" d="m325.6 243.8c-3 1.5-6.2 2.9-9.8 4l-2.9-3.9s18.5-4.9 26.7-15.2l6.2-0.7c-0.1 0-6.5 8.8-20.2 15.8" inkscape:connector-curvature="0"></path> <path id="path46" class="st2" d="m342.1 243.8c10.3-7.8 21.7-19.8 25-35.9l-3.2-6.8s-0.4 23.7-31.3 42.7c-4.1 2.6-8.8 5-14.1 7.3l3.8 4.3c-0.2-0.1 9.3-3.9 19.8-11.6" inkscape:connector-curvature="0"></path> <path id="path48" class="st2" d="m348.2 243.8c-6.2 5.4-13.9 10.5-23.7 14.9l3.6 3.5s13.7-4.3 27.5-18.4c6-6.4 12.3-14.5 17.3-25.2l-3-6.2s-4.1 16.2-21.7 31.4" inkscape:connector-curvature="0"></path> <path id="path50" class="st2" d="m360.6 243.8c-6.7 7.3-16.6 15.1-30.2 20.9l3.8 2.9s18-7.8 32.4-23.9c3.2-3.6 6.2-7.5 8.8-11.9l-1.6-7.8c-0.1 0.1-3.4 9.3-13.2 19.8" inkscape:connector-curvature="0"></path> <path id="path52" class="st2" d="m387.8 226.7c-0.8-9.5-4.7-15.1-5.6-19-0.3-1.7-2.2-6.7-0.2-9.7 3.8-5.1 10.2-4.8 14.3 4.3h4.8s-1.9-11.6-12.5-12.1c0 0-13.3-0.3-12.6 13 0 0 1.5 9 5.3 18.4 0 0 3.8 6.7-0.4 15.2 0 0-1.9 3.2-3.5 6.9-0.8 2.2-1.5 4.7-1.3 6.7l4.5 4.6c-0.6-5.1 1.2-9.4 2-11.3 0.7-1.8 6.1-7.9 5.2-17" inkscape:connector-curvature="0"></path> <path id="path54" class="st2" d="m389.6 261.8-4.8-3.2s-0.7-7.8 2.6-13.8c0 0 0.2-0.4 0.6-1.1 1.2-2.9 4.5-10.7 4-15.4l3.5 5.6s0.3 4.8-2.7 10c-2.3 3.7-5.2 12.8-3.2 17.9" inkscape:connector-curvature="0"></path> <path id="path58" class="st2" d="m396 205.2 5.8 0.1s7.2 4.8 0 18.1c0 0-1 3.2 0 5.3 0-0.1-12.2-7.3-5.8-23.5" inkscape:connector-curvature="0"></path> <path id="path60" class="st2" d="m331.5 229.9s-10 7.5-16.1 8.1c0 0-2.6 0.7-5 3.2l-4.3-2.6s0-3.5 4.3-4.5c0 0-7.5-5.3-8.2-7.5 0 0-3.2 1-4.1 3.9l-3.6-3.2s2.1-2.6 4.8-3.6c0 0-5.1-6.9-5.5-9.5v-23.6s17.1-1.7 9.4 18.5c0 0 9.7 16.3 28.3 20.8" inkscape:connector-curvature="0"></path> <path id="path62" class="st2" d="m344.7 217.3s-0.6-1.6-7.4 1.6c0 0-2.2 2.3-5.8-1 0 0-4.3-6.2-10.3-2.2 0 0 3.9 0.3 6.4 4.6 0 0 3 6.5 10 2.2 0.1-0.1 3.7-4.9 7.1-5.2" inkscape:connector-curvature="0"></path> <path id="path64" class="st2" d="m343.8 202.6h-4.3l4.5-4.1c-0.3 0.2-1.3 1.6-0.2 4.1m15.5-7.5h-15.4s-12 7.2-15.4 15.7l7.7 5.8s0.7-8.2 8.7-6.2c0 0 11.5 8.4-3.9 11.4 0 0 5.8 6.8 11-2.6-0.1 0 7.8-16 7.3-24.1z" inkscape:connector-curvature="0"></path> <polyline id="polyline66" class="st2" points="343.4 190.9 343.1 183.4 347 187.6 351.1 182.7 355.6 188.3 359.4 182.7 360.2 190.9"></polyline> </g> </g> </g> </svg> 