<?xml version="1.0"?>
 <!-- Created with Inkscape (http://www.inkscape.org/) --> <svg id="svg175" width="28.919" height="33.179" inkscape:version="0.92.5 (2060ec1f9f, 2020-04-08)" sodipodi:docname="castilla.svg" version="1.1" viewBox="0 0 28.919 33.179" xmlns="http://www.w3.org/2000/svg" xmlns:cc="http://creativecommons.org/ns#" xmlns:dc="http://purl.org/dc/elements/1.1/" xmlns:inkscape="http://www.inkscape.org/namespaces/inkscape" xmlns:rdf="http://www.w3.org/1999/02/22-rdf-syntax-ns#" xmlns:sodipodi="http://sodipodi.sourceforge.net/DTD/sodipodi-0.dtd"> <sodipodi:namedview id="base" bordercolor="#666666" borderopacity="1.0" fit-margin-bottom="0" fit-margin-left="0" fit-margin-right="0" fit-margin-top="0" inkscape:current-layer="layer1" inkscape:cx="87.90714" inkscape:cy="467.97149" inkscape:document-units="mm" inkscape:pageopacity="0.0" inkscape:pageshadow="2" inkscape:window-height="948" inkscape:window-maximized="1" inkscape:window-width="1920" inkscape:window-x="0" inkscape:window-y="27" inkscape:zoom="0.35" pagecolor="#ffffff" showgrid="false"></sodipodi:namedview> <metadata id="metadata172"> <rdf:rdf> <cc:work rdf:about=""> <dc:format>image/svg+xml</dc:format> <dc:type rdf:resource="http://purl.org/dc/dcmitype/StillImage"></dc:type> <dc:title></dc:title> </cc:work> </rdf:rdf> </metadata> <g id="layer1" transform="translate(-82.575 -239.47)" inkscape:groupmode="layer" inkscape:label="Capa 1"> <path id="path70" class="st3" d="m87.443 247.65h5.0535v-5.1594l0.47625-0.42333v-0.39688h-2.54v0.92604h-1.0054v-0.89958l-2.5929-0.0265v0.47625l0.55562 0.39688m3.3602 2.4342c0-0.42333-0.34396-0.79375-0.79375-0.79375s-0.79375 0.39688-0.79375 0.79375v1.7198h1.561v-1.7198zm-4.4185 3.5719h3.7571v1.1642h2.0902v-1.1377h3.466v1.1377h2.4342v-1.1377h3.7835v1.1377h2.1431v-1.1642h3.81v1.3229l-0.9525 1.4023h-19.5l-1.0319-1.4817zm7.7258-9.0488h2.4077v1.2171h1.0319v-1.2171l2.4871-0.0265v0.52917l-0.55562 0.39687v7.3025h-4.789v-7.3025l-0.52917-0.39687v-0.50271zm3.8365 4.3127c0-0.42334-0.34396-0.79375-0.79375-0.79375s-0.79375 0.34395-0.79375 0.79375v2.5929h1.561v-2.5929zm3.8894 3.9688h5.0535v-5.1594l0.47625-0.42333v-0.39688h-2.54v0.92604h-1.0054v-0.89958l-2.5929-0.0265v0.47625l0.55562 0.39688zm3.3602-2.6723c0-0.42333-0.34396-0.79375-0.79375-0.79375s-0.79375 0.39688-0.79375 0.79375v1.7198h1.561v-1.7198zm-4.8948 20.108h8.8106l-2.2754-12.912h-19.235l-2.5135 12.647h8.9429l0.10583-7.1967c0-0.79375 1.4023-1.4552 3.0427-1.4552 1.6933 0 3.0427 0.66146 3.0427 1.4552zm-15.478 0.84666h9.181v2.4871h-11.271v-0.89959zm24.606 0.10584h-9.181v2.4871h11.245v-0.92604zm-18.097-8.7842c0-0.60854-0.50271-1.1377-1.1377-1.1377-0.58208 0-1.0848 0.50271-1.0848 1.1377v2.4342l2.2225-0.0265zm13.652 0c0-0.60854-0.47625-1.1377-1.0848-1.1377-0.66146 0-1.1377 0.50271-1.1377 1.1377v2.4342h2.249zm-22.357 12.382h28.919v2.884h-28.919z" fill="#ffb300" stroke-width=".26458" inkscape:connector-curvature="0"></path> </g> </svg> 