<?xml version="1.0" encoding="UTF-8"?>
<!DOCTYPE svg PUBLIC "-//W3C//DTD SVG 1.1//EN" "http://www.w3.org/Graphics/SVG/1.1/DTD/svg11.dtd">
<svg width="134mm" height="102mm" viewBox="0 0 13400 10200" version="1.1" xmlns="http://www.w3.org/2000/svg" xmlns:xlink="http://www.w3.org/1999/xlink" stroke-width="28.222" stroke-linejoin="round" xml:space="preserve">
 <path fill="rgb(255,255,255)" stroke="none" d="M 6683,10174 L 0,10174 0,0 13365,0 13365,10174 6683,10174 Z"/>
 <path fill="none" stroke="rgb(217,217,217)" stroke-width="26" stroke-linejoin="round" d="M 6683,10174 L 0,10174 0,0 13365,0 13365,10174 6683,10174 Z"/>
 <path fill="none" stroke="rgb(217,217,217)" stroke-width="26" stroke-linejoin="round" d="M 1637,1498 L 1637,8837"/>
 <path fill="none" stroke="rgb(217,217,217)" stroke-width="26" stroke-linejoin="round" d="M 2825,1498 L 2825,8837"/>
 <path fill="none" stroke="rgb(217,217,217)" stroke-width="26" stroke-linejoin="round" d="M 4014,1498 L 4014,8837"/>
 <path fill="none" stroke="rgb(217,217,217)" stroke-width="26" stroke-linejoin="round" d="M 5202,1498 L 5202,8837"/>
 <path fill="none" stroke="rgb(217,217,217)" stroke-width="26" stroke-linejoin="round" d="M 6391,1498 L 6391,8837"/>
 <path fill="none" stroke="rgb(217,217,217)" stroke-width="26" stroke-linejoin="round" d="M 7580,1498 L 7580,8837"/>
 <path fill="none" stroke="rgb(217,217,217)" stroke-width="26" stroke-linejoin="round" d="M 8768,1498 L 8768,8837"/>
 <path fill="none" stroke="rgb(217,217,217)" stroke-width="26" stroke-linejoin="round" d="M 9957,1498 L 9957,8837"/>
 <path fill="none" stroke="rgb(217,217,217)" stroke-width="26" stroke-linejoin="round" d="M 9957,8837 L 1637,8837"/>
 <path fill="none" stroke="rgb(217,217,217)" stroke-width="26" stroke-linejoin="round" d="M 9957,8021 L 1637,8021"/>
 <path fill="none" stroke="rgb(217,217,217)" stroke-width="26" stroke-linejoin="round" d="M 9957,7205 L 1637,7205"/>
 <path fill="none" stroke="rgb(217,217,217)" stroke-width="26" stroke-linejoin="round" d="M 9957,6390 L 1637,6390"/>
 <path fill="none" stroke="rgb(217,217,217)" stroke-width="26" stroke-linejoin="round" d="M 9957,5574 L 1637,5574"/>
 <path fill="none" stroke="rgb(217,217,217)" stroke-width="26" stroke-linejoin="round" d="M 9957,4759 L 1637,4759"/>
 <path fill="none" stroke="rgb(217,217,217)" stroke-width="26" stroke-linejoin="round" d="M 9957,3944 L 1637,3944"/>
 <path fill="none" stroke="rgb(217,217,217)" stroke-width="26" stroke-linejoin="round" d="M 9957,3129 L 1637,3129"/>
 <path fill="none" stroke="rgb(217,217,217)" stroke-width="26" stroke-linejoin="round" d="M 9957,2313 L 1637,2313"/>
 <path fill="none" stroke="rgb(217,217,217)" stroke-width="26" stroke-linejoin="round" d="M 9957,1498 L 1637,1498"/>
 <path fill="none" stroke="rgb(191,191,191)" stroke-width="26" stroke-linejoin="round" d="M 1637,2313 L 9957,2313"/>
 <path fill="none" stroke="rgb(191,191,191)" stroke-width="26" stroke-linejoin="round" d="M 1637,8837 L 1637,1498"/>
 <path fill="none" stroke="rgb(192,80,77)" stroke-width="53" stroke-linejoin="round" stroke-linecap="round" d="M 2112,4881 L 2349,5117 2587,3781 3300,2557 4014,2762 6391,2932 8768,2467"/>
 <path fill="rgb(192,80,77)" stroke="none" d="M 2200,4881 L 2200,4878 2200,4874 2199,4870 2199,4866 2198,4862 2197,4859 2196,4855 2195,4851 2193,4848 2192,4844 2190,4841 2188,4837 2186,4834 2184,4831 2182,4828 2179,4825 2177,4822 2174,4819 2171,4816 2168,4814 2165,4812 2162,4809 2159,4807 2156,4805 2153,4803 2149,4802 2146,4800 2142,4799 2138,4797 2135,4796 2131,4795 2127,4795 2123,4794 2120,4794 2116,4793 2112,4793 2108,4793 2104,4794 2100,4794 2097,4795 2093,4795 2089,4796 2085,4797 2082,4799 2078,4800 2075,4802 2071,4803 2068,4805 2065,4807 2061,4809 2058,4812 2055,4814 2052,4816 2050,4819 2047,4822 2044,4825 2042,4828 2040,4831 2038,4834 2036,4837 2034,4841 2032,4844 2031,4848 2029,4851 2028,4855 2027,4859 2026,4862 2025,4866 2025,4870 2024,4874 2024,4878 2024,4881 2024,4885 2024,4889 2025,4893 2025,4897 2026,4900 2027,4904 2028,4908 2029,4911 2031,4915 2032,4919 2034,4922 2036,4925 2038,4929 2040,4932 2042,4935 2044,4938 2047,4941 2050,4944 2052,4946 2055,4949 2058,4951 2061,4953 2065,4956 2068,4958 2071,4959 2075,4961 2078,4963 2082,4964 2085,4965 2089,4966 2093,4967 2097,4968 2100,4969 2104,4969 2108,4969 2112,4969 2116,4969 2120,4969 2123,4969 2127,4968 2131,4967 2135,4966 2138,4965 2142,4964 2146,4963 2149,4961 2153,4959 2156,4958 2159,4956 2162,4953 2165,4951 2168,4949 2171,4946 2174,4944 2177,4941 2179,4938 2182,4935 2184,4932 2186,4929 2188,4925 2190,4922 2192,4919 2193,4915 2195,4911 2196,4908 2197,4904 2198,4900 2199,4897 2199,4893 2200,4889 2200,4885 2200,4881 Z"/>
 <path fill="none" stroke="rgb(192,80,77)" stroke-linejoin="round" d="M 2200,4881 L 2200,4878 2200,4874 2199,4870 2199,4866 2198,4862 2197,4859 2196,4855 2195,4851 2193,4848 2192,4844 2190,4841 2188,4837 2186,4834 2184,4831 2182,4828 2179,4825 2177,4822 2174,4819 2171,4816 2168,4814 2165,4812 2162,4809 2159,4807 2156,4805 2153,4803 2149,4802 2146,4800 2142,4799 2138,4797 2135,4796 2131,4795 2127,4795 2123,4794 2120,4794 2116,4793 2112,4793 2108,4793 2104,4794 2100,4794 2097,4795 2093,4795 2089,4796 2085,4797 2082,4799 2078,4800 2075,4802 2071,4803 2068,4805 2065,4807 2061,4809 2058,4812 2055,4814 2052,4816 2050,4819 2047,4822 2044,4825 2042,4828 2040,4831 2038,4834 2036,4837 2034,4841 2032,4844 2031,4848 2029,4851 2028,4855 2027,4859 2026,4862 2025,4866 2025,4870 2024,4874 2024,4878 2024,4881 2024,4885 2024,4889 2025,4893 2025,4897 2026,4900 2027,4904 2028,4908 2029,4911 2031,4915 2032,4919 2034,4922 2036,4925 2038,4929 2040,4932 2042,4935 2044,4938 2047,4941 2050,4944 2052,4946 2055,4949 2058,4951 2061,4953 2065,4956 2068,4958 2071,4959 2075,4961 2078,4963 2082,4964 2085,4965 2089,4966 2093,4967 2097,4968 2100,4969 2104,4969 2108,4969 2112,4969 2116,4969 2120,4969 2123,4969 2127,4968 2131,4967 2135,4966 2138,4965 2142,4964 2146,4963 2149,4961 2153,4959 2156,4958 2159,4956 2162,4953 2165,4951 2168,4949 2171,4946 2174,4944 2177,4941 2179,4938 2182,4935 2184,4932 2186,4929 2188,4925 2190,4922 2192,4919 2193,4915 2195,4911 2196,4908 2197,4904 2198,4900 2199,4897 2199,4893 2200,4889 2200,4885 2200,4881 Z"/>
 <path fill="rgb(192,80,77)" stroke="none" d="M 2437,5117 L 2437,5114 2437,5110 2436,5106 2436,5102 2435,5098 2434,5095 2433,5091 2432,5087 2430,5085 2429,5081 2427,5078 2425,5074 2423,5071 2421,5068 2419,5065 2417,5062 2414,5059 2411,5056 2409,5054 2406,5051 2403,5049 2400,5046 2396,5044 2393,5042 2390,5040 2386,5039 2383,5037 2379,5036 2376,5035 2372,5033 2368,5033 2364,5032 2361,5031 2357,5031 2353,5031 2349,5030 2345,5031 2341,5031 2338,5031 2334,5032 2330,5033 2326,5033 2323,5035 2319,5036 2315,5037 2312,5039 2308,5040 2305,5042 2302,5044 2299,5046 2296,5049 2293,5051 2290,5054 2287,5056 2284,5059 2282,5062 2279,5065 2277,5068 2275,5071 2273,5074 2271,5078 2269,5081 2268,5085 2266,5087 2265,5091 2264,5095 2263,5098 2262,5102 2262,5106 2261,5110 2261,5114 2261,5117 2261,5121 2261,5125 2262,5129 2262,5133 2263,5136 2264,5140 2265,5144 2266,5148 2268,5151 2269,5155 2271,5158 2273,5161 2275,5165 2277,5168 2279,5171 2282,5174 2284,5177 2287,5180 2290,5182 2293,5185 2296,5187 2299,5190 2302,5192 2305,5194 2308,5196 2312,5197 2315,5199 2319,5200 2323,5201 2326,5202 2330,5203 2334,5204 2338,5205 2341,5205 2345,5205 2349,5205 2353,5205 2357,5205 2361,5205 2364,5204 2368,5203 2372,5202 2376,5201 2379,5200 2383,5199 2386,5197 2390,5196 2393,5194 2396,5192 2400,5190 2403,5187 2406,5185 2409,5182 2411,5180 2414,5177 2417,5174 2419,5171 2421,5168 2423,5165 2425,5161 2427,5158 2429,5155 2430,5151 2432,5148 2433,5144 2434,5140 2435,5136 2436,5133 2436,5129 2437,5125 2437,5121 2437,5117 Z"/>
 <path fill="none" stroke="rgb(192,80,77)" stroke-linejoin="round" d="M 2437,5117 L 2437,5114 2437,5110 2436,5106 2436,5102 2435,5098 2434,5095 2433,5091 2432,5087 2430,5085 2429,5081 2427,5078 2425,5074 2423,5071 2421,5068 2419,5065 2417,5062 2414,5059 2411,5056 2409,5054 2406,5051 2403,5049 2400,5046 2396,5044 2393,5042 2390,5040 2386,5039 2383,5037 2379,5036 2376,5035 2372,5033 2368,5033 2364,5032 2361,5031 2357,5031 2353,5031 2349,5030 2345,5031 2341,5031 2338,5031 2334,5032 2330,5033 2326,5033 2323,5035 2319,5036 2315,5037 2312,5039 2308,5040 2305,5042 2302,5044 2299,5046 2296,5049 2293,5051 2290,5054 2287,5056 2284,5059 2282,5062 2279,5065 2277,5068 2275,5071 2273,5074 2271,5078 2269,5081 2268,5085 2266,5087 2265,5091 2264,5095 2263,5098 2262,5102 2262,5106 2261,5110 2261,5114 2261,5117 2261,5121 2261,5125 2262,5129 2262,5133 2263,5136 2264,5140 2265,5144 2266,5148 2268,5151 2269,5155 2271,5158 2273,5161 2275,5165 2277,5168 2279,5171 2282,5174 2284,5177 2287,5180 2290,5182 2293,5185 2296,5187 2299,5190 2302,5192 2305,5194 2308,5196 2312,5197 2315,5199 2319,5200 2323,5201 2326,5202 2330,5203 2334,5204 2338,5205 2341,5205 2345,5205 2349,5205 2353,5205 2357,5205 2361,5205 2364,5204 2368,5203 2372,5202 2376,5201 2379,5200 2383,5199 2386,5197 2390,5196 2393,5194 2396,5192 2400,5190 2403,5187 2406,5185 2409,5182 2411,5180 2414,5177 2417,5174 2419,5171 2421,5168 2423,5165 2425,5161 2427,5158 2429,5155 2430,5151 2432,5148 2433,5144 2434,5140 2435,5136 2436,5133 2436,5129 2437,5125 2437,5121 2437,5117 Z"/>
 <path fill="rgb(192,80,77)" stroke="none" d="M 2675,3781 L 2675,3777 2675,3773 2675,3769 2674,3765 2673,3762 2672,3758 2671,3754 2670,3751 2669,3747 2667,3743 2665,3740 2664,3737 2662,3733 2659,3730 2657,3727 2655,3724 2652,3721 2650,3718 2647,3716 2644,3713 2641,3711 2638,3709 2635,3706 2631,3704 2628,3703 2624,3701 2621,3699 2617,3698 2614,3697 2610,3696 2606,3695 2603,3694 2599,3693 2595,3693 2591,3693 2587,3693 2583,3693 2580,3693 2576,3693 2572,3694 2568,3695 2565,3696 2561,3697 2557,3698 2554,3699 2550,3701 2547,3703 2543,3704 2540,3706 2537,3709 2534,3711 2531,3713 2528,3716 2525,3718 2522,3721 2520,3724 2517,3727 2515,3730 2513,3733 2511,3737 2509,3740 2508,3743 2506,3747 2505,3751 2503,3754 2502,3758 2501,3762 2501,3765 2500,3769 2500,3773 2499,3777 2499,3781 2499,3784 2500,3788 2500,3792 2501,3796 2501,3800 2502,3803 2503,3807 2505,3811 2506,3814 2508,3818 2509,3821 2511,3825 2513,3828 2515,3831 2517,3834 2520,3837 2522,3840 2525,3843 2528,3846 2531,3848 2534,3850 2537,3853 2540,3855 2543,3857 2547,3859 2550,3860 2554,3862 2557,3863 2561,3865 2565,3866 2568,3867 2572,3867 2576,3868 2580,3868 2583,3869 2587,3869 2591,3869 2595,3868 2599,3868 2603,3867 2606,3867 2610,3866 2614,3865 2617,3863 2621,3862 2624,3860 2628,3859 2631,3857 2635,3855 2638,3853 2641,3850 2644,3848 2647,3846 2650,3843 2652,3840 2655,3837 2657,3834 2659,3831 2662,3828 2664,3825 2665,3821 2667,3818 2669,3814 2670,3811 2671,3807 2672,3803 2673,3800 2674,3796 2675,3792 2675,3788 2675,3784 2675,3781 Z"/>
 <path fill="none" stroke="rgb(192,80,77)" stroke-linejoin="round" d="M 2675,3781 L 2675,3777 2675,3773 2675,3769 2674,3765 2673,3762 2672,3758 2671,3754 2670,3751 2669,3747 2667,3743 2665,3740 2664,3737 2662,3733 2659,3730 2657,3727 2655,3724 2652,3721 2650,3718 2647,3716 2644,3713 2641,3711 2638,3709 2635,3706 2631,3704 2628,3703 2624,3701 2621,3699 2617,3698 2614,3697 2610,3696 2606,3695 2603,3694 2599,3693 2595,3693 2591,3693 2587,3693 2583,3693 2580,3693 2576,3693 2572,3694 2568,3695 2565,3696 2561,3697 2557,3698 2554,3699 2550,3701 2547,3703 2543,3704 2540,3706 2537,3709 2534,3711 2531,3713 2528,3716 2525,3718 2522,3721 2520,3724 2517,3727 2515,3730 2513,3733 2511,3737 2509,3740 2508,3743 2506,3747 2505,3751 2503,3754 2502,3758 2501,3762 2501,3765 2500,3769 2500,3773 2499,3777 2499,3781 2499,3784 2500,3788 2500,3792 2501,3796 2501,3800 2502,3803 2503,3807 2505,3811 2506,3814 2508,3818 2509,3821 2511,3825 2513,3828 2515,3831 2517,3834 2520,3837 2522,3840 2525,3843 2528,3846 2531,3848 2534,3850 2537,3853 2540,3855 2543,3857 2547,3859 2550,3860 2554,3862 2557,3863 2561,3865 2565,3866 2568,3867 2572,3867 2576,3868 2580,3868 2583,3869 2587,3869 2591,3869 2595,3868 2599,3868 2603,3867 2606,3867 2610,3866 2614,3865 2617,3863 2621,3862 2624,3860 2628,3859 2631,3857 2635,3855 2638,3853 2641,3850 2644,3848 2647,3846 2650,3843 2652,3840 2655,3837 2657,3834 2659,3831 2662,3828 2664,3825 2665,3821 2667,3818 2669,3814 2670,3811 2671,3807 2672,3803 2673,3800 2674,3796 2675,3792 2675,3788 2675,3784 2675,3781 Z"/>
 <path fill="rgb(192,80,77)" stroke="none" d="M 3388,2557 L 3388,2553 3388,2550 3387,2546 3387,2542 3386,2538 3385,2535 3384,2531 3383,2527 3381,2524 3380,2520 3378,2517 3376,2513 3374,2510 3372,2507 3370,2504 3367,2501 3365,2498 3362,2495 3359,2492 3356,2490 3353,2488 3350,2485 3347,2483 3344,2481 3341,2479 3337,2478 3334,2476 3330,2475 3326,2473 3323,2472 3319,2471 3315,2471 3311,2470 3308,2470 3304,2469 3300,2469 3296,2469 3292,2470 3288,2470 3285,2471 3281,2471 3277,2472 3273,2473 3270,2475 3266,2476 3263,2478 3259,2479 3256,2481 3253,2483 3249,2485 3246,2488 3243,2490 3240,2492 3238,2495 3235,2498 3232,2501 3230,2504 3228,2507 3226,2510 3224,2513 3222,2517 3220,2520 3219,2524 3217,2527 3216,2531 3215,2535 3214,2538 3213,2542 3213,2546 3212,2550 3212,2553 3212,2557 3212,2561 3212,2565 3213,2569 3213,2573 3214,2576 3215,2580 3216,2584 3217,2587 3219,2591 3220,2595 3222,2598 3224,2601 3226,2605 3228,2608 3230,2611 3232,2614 3235,2617 3238,2620 3240,2622 3243,2625 3246,2627 3249,2629 3253,2632 3256,2634 3259,2635 3263,2637 3266,2639 3270,2640 3273,2641 3277,2642 3281,2643 3285,2644 3288,2645 3292,2645 3296,2645 3300,2645 3304,2645 3308,2645 3311,2645 3315,2644 3319,2643 3323,2642 3326,2641 3330,2640 3334,2639 3337,2637 3341,2635 3344,2634 3347,2632 3350,2629 3353,2627 3356,2625 3359,2622 3362,2620 3365,2617 3367,2614 3370,2611 3372,2608 3374,2605 3376,2601 3378,2598 3380,2595 3381,2591 3383,2587 3384,2584 3385,2580 3386,2576 3387,2573 3387,2569 3388,2565 3388,2561 3388,2557 Z"/>
 <path fill="none" stroke="rgb(192,80,77)" stroke-linejoin="round" d="M 3388,2557 L 3388,2553 3388,2550 3387,2546 3387,2542 3386,2538 3385,2535 3384,2531 3383,2527 3381,2524 3380,2520 3378,2517 3376,2513 3374,2510 3372,2507 3370,2504 3367,2501 3365,2498 3362,2495 3359,2492 3356,2490 3353,2488 3350,2485 3347,2483 3344,2481 3341,2479 3337,2478 3334,2476 3330,2475 3326,2473 3323,2472 3319,2471 3315,2471 3311,2470 3308,2470 3304,2469 3300,2469 3296,2469 3292,2470 3288,2470 3285,2471 3281,2471 3277,2472 3273,2473 3270,2475 3266,2476 3263,2478 3259,2479 3256,2481 3253,2483 3249,2485 3246,2488 3243,2490 3240,2492 3238,2495 3235,2498 3232,2501 3230,2504 3228,2507 3226,2510 3224,2513 3222,2517 3220,2520 3219,2524 3217,2527 3216,2531 3215,2535 3214,2538 3213,2542 3213,2546 3212,2550 3212,2553 3212,2557 3212,2561 3212,2565 3213,2569 3213,2573 3214,2576 3215,2580 3216,2584 3217,2587 3219,2591 3220,2595 3222,2598 3224,2601 3226,2605 3228,2608 3230,2611 3232,2614 3235,2617 3238,2620 3240,2622 3243,2625 3246,2627 3249,2629 3253,2632 3256,2634 3259,2635 3263,2637 3266,2639 3270,2640 3273,2641 3277,2642 3281,2643 3285,2644 3288,2645 3292,2645 3296,2645 3300,2645 3304,2645 3308,2645 3311,2645 3315,2644 3319,2643 3323,2642 3326,2641 3330,2640 3334,2639 3337,2637 3341,2635 3344,2634 3347,2632 3350,2629 3353,2627 3356,2625 3359,2622 3362,2620 3365,2617 3367,2614 3370,2611 3372,2608 3374,2605 3376,2601 3378,2598 3380,2595 3381,2591 3383,2587 3384,2584 3385,2580 3386,2576 3387,2573 3387,2569 3388,2565 3388,2561 3388,2557 Z"/>
 <path fill="rgb(192,80,77)" stroke="none" d="M 4102,2762 L 4101,2758 4101,2754 4101,2750 4100,2746 4099,2743 4099,2739 4097,2735 4096,2732 4095,2728 4093,2725 4092,2721 4090,2718 4088,2714 4086,2711 4083,2708 4081,2705 4078,2702 4076,2699 4073,2697 4070,2694 4067,2692 4064,2690 4061,2687 4058,2686 4054,2684 4051,2682 4047,2680 4044,2679 4040,2678 4036,2677 4033,2676 4029,2675 4025,2674 4021,2674 4017,2674 4014,2674 4010,2674 4006,2674 4002,2674 3998,2675 3994,2676 3991,2677 3987,2678 3983,2679 3980,2680 3976,2682 3973,2684 3970,2686 3966,2687 3963,2690 3960,2692 3957,2694 3954,2697 3951,2699 3949,2702 3946,2705 3944,2708 3941,2711 3939,2714 3937,2718 3935,2721 3934,2725 3932,2728 3931,2732 3930,2735 3928,2739 3928,2743 3927,2746 3926,2750 3926,2754 3926,2758 3926,2762 3926,2766 3926,2769 3926,2773 3927,2777 3928,2781 3928,2784 3930,2788 3931,2792 3932,2795 3934,2799 3935,2802 3937,2806 3939,2809 3941,2812 3944,2815 3946,2818 3949,2820 3951,2823 3954,2826 3957,2828 3960,2831 3963,2833 3966,2835 3970,2837 3973,2839 3976,2840 3980,2842 3983,2843 3987,2845 3991,2846 3994,2847 3998,2847 4002,2848 4006,2848 4010,2849 4014,2849 4017,2849 4021,2848 4025,2848 4029,2847 4033,2847 4036,2846 4040,2845 4044,2843 4047,2842 4051,2840 4054,2839 4058,2837 4061,2835 4064,2833 4067,2831 4070,2828 4073,2826 4076,2823 4078,2820 4081,2818 4083,2815 4086,2812 4088,2809 4090,2806 4092,2802 4093,2799 4095,2795 4096,2792 4097,2788 4099,2784 4099,2781 4100,2777 4101,2773 4101,2769 4101,2766 4102,2762 Z"/>
 <path fill="none" stroke="rgb(192,80,77)" stroke-linejoin="round" d="M 4102,2762 L 4101,2758 4101,2754 4101,2750 4100,2746 4099,2743 4099,2739 4097,2735 4096,2732 4095,2728 4093,2725 4092,2721 4090,2718 4088,2714 4086,2711 4083,2708 4081,2705 4078,2702 4076,2699 4073,2697 4070,2694 4067,2692 4064,2690 4061,2687 4058,2686 4054,2684 4051,2682 4047,2680 4044,2679 4040,2678 4036,2677 4033,2676 4029,2675 4025,2674 4021,2674 4017,2674 4014,2674 4010,2674 4006,2674 4002,2674 3998,2675 3994,2676 3991,2677 3987,2678 3983,2679 3980,2680 3976,2682 3973,2684 3970,2686 3966,2687 3963,2690 3960,2692 3957,2694 3954,2697 3951,2699 3949,2702 3946,2705 3944,2708 3941,2711 3939,2714 3937,2718 3935,2721 3934,2725 3932,2728 3931,2732 3930,2735 3928,2739 3928,2743 3927,2746 3926,2750 3926,2754 3926,2758 3926,2762 3926,2766 3926,2769 3926,2773 3927,2777 3928,2781 3928,2784 3930,2788 3931,2792 3932,2795 3934,2799 3935,2802 3937,2806 3939,2809 3941,2812 3944,2815 3946,2818 3949,2820 3951,2823 3954,2826 3957,2828 3960,2831 3963,2833 3966,2835 3970,2837 3973,2839 3976,2840 3980,2842 3983,2843 3987,2845 3991,2846 3994,2847 3998,2847 4002,2848 4006,2848 4010,2849 4014,2849 4017,2849 4021,2848 4025,2848 4029,2847 4033,2847 4036,2846 4040,2845 4044,2843 4047,2842 4051,2840 4054,2839 4058,2837 4061,2835 4064,2833 4067,2831 4070,2828 4073,2826 4076,2823 4078,2820 4081,2818 4083,2815 4086,2812 4088,2809 4090,2806 4092,2802 4093,2799 4095,2795 4096,2792 4097,2788 4099,2784 4099,2781 4100,2777 4101,2773 4101,2769 4101,2766 4102,2762 Z"/>
 <path fill="rgb(192,80,77)" stroke="none" d="M 6479,2932 L 6478,2929 6478,2925 6478,2921 6477,2917 6476,2913 6476,2910 6474,2906 6473,2902 6472,2899 6470,2895 6469,2892 6467,2888 6465,2885 6463,2882 6460,2879 6458,2876 6455,2873 6453,2870 6450,2868 6447,2865 6444,2863 6441,2860 6438,2858 6435,2856 6431,2854 6428,2853 6424,2851 6421,2850 6417,2848 6413,2847 6410,2846 6406,2846 6402,2845 6398,2845 6394,2844 6391,2844 6387,2844 6383,2845 6379,2845 6375,2846 6371,2846 6368,2847 6364,2848 6360,2850 6357,2851 6353,2853 6350,2854 6347,2856 6343,2858 6340,2860 6337,2863 6334,2865 6331,2868 6328,2870 6326,2873 6323,2876 6321,2879 6318,2882 6316,2885 6314,2888 6312,2892 6311,2895 6309,2899 6308,2902 6307,2906 6305,2910 6305,2913 6304,2917 6303,2921 6303,2925 6303,2929 6303,2932 6303,2936 6303,2940 6303,2944 6304,2948 6305,2951 6305,2955 6307,2959 6308,2962 6309,2966 6311,2970 6312,2973 6314,2976 6316,2980 6318,2983 6321,2986 6323,2989 6326,2992 6328,2995 6331,2997 6334,3000 6337,3002 6340,3004 6343,3007 6347,3009 6350,3010 6353,3012 6357,3014 6360,3015 6364,3016 6368,3017 6371,3018 6375,3019 6379,3020 6383,3020 6387,3020 6391,3020 6394,3020 6398,3020 6402,3020 6406,3019 6410,3018 6413,3017 6417,3016 6421,3015 6424,3014 6428,3012 6431,3010 6435,3009 6438,3007 6441,3004 6444,3002 6447,3000 6450,2997 6453,2995 6455,2992 6458,2989 6460,2986 6463,2983 6465,2980 6467,2976 6469,2973 6470,2970 6472,2966 6473,2962 6474,2959 6476,2955 6476,2951 6477,2948 6478,2944 6478,2940 6478,2936 6479,2932 Z"/>
 <path fill="none" stroke="rgb(192,80,77)" stroke-linejoin="round" d="M 6479,2932 L 6478,2929 6478,2925 6478,2921 6477,2917 6476,2913 6476,2910 6474,2906 6473,2902 6472,2899 6470,2895 6469,2892 6467,2888 6465,2885 6463,2882 6460,2879 6458,2876 6455,2873 6453,2870 6450,2868 6447,2865 6444,2863 6441,2860 6438,2858 6435,2856 6431,2854 6428,2853 6424,2851 6421,2850 6417,2848 6413,2847 6410,2846 6406,2846 6402,2845 6398,2845 6394,2844 6391,2844 6387,2844 6383,2845 6379,2845 6375,2846 6371,2846 6368,2847 6364,2848 6360,2850 6357,2851 6353,2853 6350,2854 6347,2856 6343,2858 6340,2860 6337,2863 6334,2865 6331,2868 6328,2870 6326,2873 6323,2876 6321,2879 6318,2882 6316,2885 6314,2888 6312,2892 6311,2895 6309,2899 6308,2902 6307,2906 6305,2910 6305,2913 6304,2917 6303,2921 6303,2925 6303,2929 6303,2932 6303,2936 6303,2940 6303,2944 6304,2948 6305,2951 6305,2955 6307,2959 6308,2962 6309,2966 6311,2970 6312,2973 6314,2976 6316,2980 6318,2983 6321,2986 6323,2989 6326,2992 6328,2995 6331,2997 6334,3000 6337,3002 6340,3004 6343,3007 6347,3009 6350,3010 6353,3012 6357,3014 6360,3015 6364,3016 6368,3017 6371,3018 6375,3019 6379,3020 6383,3020 6387,3020 6391,3020 6394,3020 6398,3020 6402,3020 6406,3019 6410,3018 6413,3017 6417,3016 6421,3015 6424,3014 6428,3012 6431,3010 6435,3009 6438,3007 6441,3004 6444,3002 6447,3000 6450,2997 6453,2995 6455,2992 6458,2989 6460,2986 6463,2983 6465,2980 6467,2976 6469,2973 6470,2970 6472,2966 6473,2962 6474,2959 6476,2955 6476,2951 6477,2948 6478,2944 6478,2940 6478,2936 6479,2932 Z"/>
 <path fill="rgb(192,80,77)" stroke="none" d="M 8856,2467 L 8855,2464 8855,2460 8855,2456 8854,2452 8853,2448 8853,2445 8851,2442 8850,2438 8849,2435 8847,2431 8846,2428 8844,2424 8842,2421 8840,2418 8837,2415 8835,2412 8832,2409 8830,2406 8827,2404 8824,2401 8821,2399 8818,2396 8815,2394 8812,2392 8808,2390 8805,2389 8801,2387 8798,2386 8794,2384 8790,2383 8787,2382 8783,2382 8779,2381 8775,2381 8771,2380 8768,2380 8764,2380 8760,2381 8756,2381 8752,2382 8748,2382 8745,2383 8741,2384 8737,2386 8734,2387 8730,2389 8727,2390 8724,2392 8720,2394 8717,2396 8714,2399 8711,2401 8708,2404 8705,2406 8703,2409 8700,2412 8698,2415 8695,2418 8693,2421 8691,2424 8689,2428 8688,2431 8686,2435 8685,2438 8684,2442 8682,2445 8682,2448 8681,2452 8680,2456 8680,2460 8680,2464 8680,2467 8680,2471 8680,2475 8680,2479 8681,2483 8682,2486 8682,2490 8684,2494 8685,2497 8686,2501 8688,2505 8689,2508 8691,2511 8693,2515 8695,2518 8698,2521 8700,2524 8703,2527 8705,2530 8708,2532 8711,2535 8714,2537 8717,2539 8720,2542 8724,2544 8727,2545 8730,2547 8734,2549 8737,2550 8741,2551 8745,2552 8748,2553 8752,2554 8756,2555 8760,2555 8764,2555 8768,2555 8771,2555 8775,2555 8779,2555 8783,2554 8787,2553 8790,2552 8794,2551 8798,2550 8801,2549 8805,2547 8808,2545 8812,2544 8815,2542 8818,2539 8821,2537 8824,2535 8827,2532 8830,2530 8832,2527 8835,2524 8837,2521 8840,2518 8842,2515 8844,2511 8846,2508 8847,2505 8849,2501 8850,2497 8851,2494 8853,2490 8853,2486 8854,2483 8855,2479 8855,2475 8855,2471 8856,2467 Z"/>
 <path fill="none" stroke="rgb(192,80,77)" stroke-linejoin="round" d="M 8856,2467 L 8855,2464 8855,2460 8855,2456 8854,2452 8853,2448 8853,2445 8851,2442 8850,2438 8849,2435 8847,2431 8846,2428 8844,2424 8842,2421 8840,2418 8837,2415 8835,2412 8832,2409 8830,2406 8827,2404 8824,2401 8821,2399 8818,2396 8815,2394 8812,2392 8808,2390 8805,2389 8801,2387 8798,2386 8794,2384 8790,2383 8787,2382 8783,2382 8779,2381 8775,2381 8771,2380 8768,2380 8764,2380 8760,2381 8756,2381 8752,2382 8748,2382 8745,2383 8741,2384 8737,2386 8734,2387 8730,2389 8727,2390 8724,2392 8720,2394 8717,2396 8714,2399 8711,2401 8708,2404 8705,2406 8703,2409 8700,2412 8698,2415 8695,2418 8693,2421 8691,2424 8689,2428 8688,2431 8686,2435 8685,2438 8684,2442 8682,2445 8682,2448 8681,2452 8680,2456 8680,2460 8680,2464 8680,2467 8680,2471 8680,2475 8680,2479 8681,2483 8682,2486 8682,2490 8684,2494 8685,2497 8686,2501 8688,2505 8689,2508 8691,2511 8693,2515 8695,2518 8698,2521 8700,2524 8703,2527 8705,2530 8708,2532 8711,2535 8714,2537 8717,2539 8720,2542 8724,2544 8727,2545 8730,2547 8734,2549 8737,2550 8741,2551 8745,2552 8748,2553 8752,2554 8756,2555 8760,2555 8764,2555 8768,2555 8771,2555 8775,2555 8779,2555 8783,2554 8787,2553 8790,2552 8794,2551 8798,2550 8801,2549 8805,2547 8808,2545 8812,2544 8815,2542 8818,2539 8821,2537 8824,2535 8827,2532 8830,2530 8832,2527 8835,2524 8837,2521 8840,2518 8842,2515 8844,2511 8846,2508 8847,2505 8849,2501 8850,2497 8851,2494 8853,2490 8853,2486 8854,2483 8855,2479 8855,2475 8855,2471 8856,2467 Z"/>
 <path fill="none" stroke="rgb(79,129,189)" stroke-width="53" stroke-linejoin="round" stroke-linecap="round" d="M 2112,8322 L 2349,7956 2587,5061 3300,2036 4014,2313 6391,2754 8768,2084"/>
 <path fill="rgb(79,129,189)" stroke="none" d="M 2200,8322 L 2200,8319 2200,8315 2199,8311 2199,8307 2198,8303 2197,8300 2196,8296 2195,8292 2193,8289 2192,8285 2190,8282 2188,8278 2186,8275 2184,8272 2182,8269 2179,8266 2177,8263 2174,8260 2171,8258 2168,8255 2165,8253 2162,8250 2159,8248 2156,8246 2153,8244 2149,8243 2146,8241 2142,8240 2138,8239 2135,8237 2131,8237 2127,8236 2123,8235 2120,8235 2116,8235 2112,8234 2108,8235 2104,8235 2100,8235 2097,8236 2093,8237 2089,8237 2085,8239 2082,8240 2078,8241 2075,8243 2071,8244 2068,8246 2065,8248 2061,8250 2058,8253 2055,8255 2052,8258 2050,8260 2047,8263 2044,8266 2042,8269 2040,8272 2038,8275 2036,8278 2034,8282 2032,8285 2031,8289 2029,8292 2028,8296 2027,8300 2026,8303 2025,8307 2025,8311 2024,8315 2024,8319 2024,8322 2024,8326 2024,8330 2025,8334 2025,8338 2026,8341 2027,8345 2028,8349 2029,8353 2031,8356 2032,8360 2034,8363 2036,8366 2038,8370 2040,8373 2042,8376 2044,8379 2047,8382 2050,8385 2052,8387 2055,8390 2058,8392 2061,8395 2065,8397 2068,8399 2071,8400 2075,8402 2078,8404 2082,8405 2085,8406 2089,8407 2093,8408 2097,8409 2100,8410 2104,8410 2108,8410 2112,8410 2116,8410 2120,8410 2123,8410 2127,8409 2131,8408 2135,8407 2138,8406 2142,8405 2146,8404 2149,8402 2153,8400 2156,8399 2159,8397 2162,8395 2165,8392 2168,8390 2171,8387 2174,8385 2177,8382 2179,8379 2182,8376 2184,8373 2186,8370 2188,8366 2190,8363 2192,8360 2193,8356 2195,8353 2196,8349 2197,8345 2198,8341 2199,8338 2199,8334 2200,8330 2200,8326 2200,8322 Z"/>
 <path fill="none" stroke="rgb(79,129,189)" stroke-linejoin="round" d="M 2200,8322 L 2200,8319 2200,8315 2199,8311 2199,8307 2198,8303 2197,8300 2196,8296 2195,8292 2193,8289 2192,8285 2190,8282 2188,8278 2186,8275 2184,8272 2182,8269 2179,8266 2177,8263 2174,8260 2171,8258 2168,8255 2165,8253 2162,8250 2159,8248 2156,8246 2153,8244 2149,8243 2146,8241 2142,8240 2138,8239 2135,8237 2131,8237 2127,8236 2123,8235 2120,8235 2116,8235 2112,8234 2108,8235 2104,8235 2100,8235 2097,8236 2093,8237 2089,8237 2085,8239 2082,8240 2078,8241 2075,8243 2071,8244 2068,8246 2065,8248 2061,8250 2058,8253 2055,8255 2052,8258 2050,8260 2047,8263 2044,8266 2042,8269 2040,8272 2038,8275 2036,8278 2034,8282 2032,8285 2031,8289 2029,8292 2028,8296 2027,8300 2026,8303 2025,8307 2025,8311 2024,8315 2024,8319 2024,8322 2024,8326 2024,8330 2025,8334 2025,8338 2026,8341 2027,8345 2028,8349 2029,8353 2031,8356 2032,8360 2034,8363 2036,8366 2038,8370 2040,8373 2042,8376 2044,8379 2047,8382 2050,8385 2052,8387 2055,8390 2058,8392 2061,8395 2065,8397 2068,8399 2071,8400 2075,8402 2078,8404 2082,8405 2085,8406 2089,8407 2093,8408 2097,8409 2100,8410 2104,8410 2108,8410 2112,8410 2116,8410 2120,8410 2123,8410 2127,8409 2131,8408 2135,8407 2138,8406 2142,8405 2146,8404 2149,8402 2153,8400 2156,8399 2159,8397 2162,8395 2165,8392 2168,8390 2171,8387 2174,8385 2177,8382 2179,8379 2182,8376 2184,8373 2186,8370 2188,8366 2190,8363 2192,8360 2193,8356 2195,8353 2196,8349 2197,8345 2198,8341 2199,8338 2199,8334 2200,8330 2200,8326 2200,8322 Z"/>
 <path fill="rgb(79,129,189)" stroke="none" d="M 2437,7956 L 2437,7952 2437,7948 2436,7944 2436,7940 2435,7936 2434,7933 2433,7929 2432,7925 2430,7922 2429,7918 2427,7915 2425,7912 2423,7908 2421,7905 2419,7902 2417,7899 2414,7896 2411,7893 2409,7891 2406,7888 2403,7886 2400,7883 2396,7881 2393,7879 2390,7877 2386,7876 2383,7874 2379,7873 2376,7872 2372,7871 2368,7870 2364,7869 2361,7868 2357,7868 2353,7868 2349,7868 2345,7868 2341,7868 2338,7868 2334,7869 2330,7870 2326,7871 2323,7872 2319,7873 2315,7874 2312,7876 2308,7877 2305,7879 2302,7881 2299,7883 2296,7886 2293,7888 2290,7891 2287,7893 2284,7896 2282,7899 2279,7902 2277,7905 2275,7908 2273,7912 2271,7915 2269,7918 2268,7922 2266,7925 2265,7929 2264,7933 2263,7936 2262,7940 2262,7944 2261,7948 2261,7952 2261,7956 2261,7959 2261,7963 2262,7967 2262,7971 2263,7975 2264,7978 2265,7982 2266,7986 2268,7989 2269,7993 2271,7996 2273,8000 2275,8003 2277,8006 2279,8009 2282,8012 2284,8015 2287,8018 2290,8020 2293,8023 2296,8025 2299,8028 2302,8030 2305,8032 2308,8034 2312,8035 2315,8037 2319,8038 2323,8039 2326,8041 2330,8041 2334,8042 2338,8043 2341,8043 2345,8043 2349,8044 2353,8043 2357,8043 2361,8043 2364,8042 2368,8041 2372,8041 2376,8039 2379,8038 2383,8037 2386,8035 2390,8034 2393,8032 2396,8030 2400,8028 2403,8025 2406,8023 2409,8020 2411,8018 2414,8015 2417,8012 2419,8009 2421,8006 2423,8003 2425,8000 2427,7996 2429,7993 2430,7989 2432,7986 2433,7982 2434,7978 2435,7975 2436,7971 2436,7967 2437,7963 2437,7959 2437,7956 Z"/>
 <path fill="none" stroke="rgb(79,129,189)" stroke-linejoin="round" d="M 2437,7956 L 2437,7952 2437,7948 2436,7944 2436,7940 2435,7936 2434,7933 2433,7929 2432,7925 2430,7922 2429,7918 2427,7915 2425,7912 2423,7908 2421,7905 2419,7902 2417,7899 2414,7896 2411,7893 2409,7891 2406,7888 2403,7886 2400,7883 2396,7881 2393,7879 2390,7877 2386,7876 2383,7874 2379,7873 2376,7872 2372,7871 2368,7870 2364,7869 2361,7868 2357,7868 2353,7868 2349,7868 2345,7868 2341,7868 2338,7868 2334,7869 2330,7870 2326,7871 2323,7872 2319,7873 2315,7874 2312,7876 2308,7877 2305,7879 2302,7881 2299,7883 2296,7886 2293,7888 2290,7891 2287,7893 2284,7896 2282,7899 2279,7902 2277,7905 2275,7908 2273,7912 2271,7915 2269,7918 2268,7922 2266,7925 2265,7929 2264,7933 2263,7936 2262,7940 2262,7944 2261,7948 2261,7952 2261,7956 2261,7959 2261,7963 2262,7967 2262,7971 2263,7975 2264,7978 2265,7982 2266,7986 2268,7989 2269,7993 2271,7996 2273,8000 2275,8003 2277,8006 2279,8009 2282,8012 2284,8015 2287,8018 2290,8020 2293,8023 2296,8025 2299,8028 2302,8030 2305,8032 2308,8034 2312,8035 2315,8037 2319,8038 2323,8039 2326,8041 2330,8041 2334,8042 2338,8043 2341,8043 2345,8043 2349,8044 2353,8043 2357,8043 2361,8043 2364,8042 2368,8041 2372,8041 2376,8039 2379,8038 2383,8037 2386,8035 2390,8034 2393,8032 2396,8030 2400,8028 2403,8025 2406,8023 2409,8020 2411,8018 2414,8015 2417,8012 2419,8009 2421,8006 2423,8003 2425,8000 2427,7996 2429,7993 2430,7989 2432,7986 2433,7982 2434,7978 2435,7975 2436,7971 2436,7967 2437,7963 2437,7959 2437,7956 Z"/>
 <path fill="rgb(79,129,189)" stroke="none" d="M 2675,5061 L 2675,5057 2675,5054 2675,5050 2674,5046 2673,5042 2672,5038 2671,5035 2670,5031 2669,5028 2667,5024 2665,5021 2664,5017 2662,5014 2659,5011 2657,5008 2655,5005 2652,5002 2650,4999 2647,4996 2644,4994 2641,4991 2638,4989 2635,4987 2631,4985 2628,4983 2624,4981 2621,4980 2617,4979 2614,4977 2610,4976 2606,4975 2603,4975 2599,4974 2595,4974 2591,4973 2587,4973 2583,4973 2580,4974 2576,4974 2572,4975 2568,4975 2565,4976 2561,4977 2557,4979 2554,4980 2550,4981 2547,4983 2543,4985 2540,4987 2537,4989 2534,4991 2531,4994 2528,4996 2525,4999 2522,5002 2520,5005 2517,5008 2515,5011 2513,5014 2511,5017 2509,5021 2508,5024 2506,5028 2505,5031 2503,5035 2502,5038 2501,5042 2501,5046 2500,5050 2500,5054 2499,5057 2499,5061 2499,5065 2500,5069 2500,5073 2501,5076 2501,5080 2502,5084 2503,5087 2505,5090 2506,5094 2508,5097 2509,5101 2511,5104 2513,5108 2515,5111 2517,5114 2520,5117 2522,5120 2525,5122 2528,5125 2531,5128 2534,5130 2537,5132 2540,5134 2543,5136 2547,5138 2550,5140 2554,5142 2557,5143 2561,5144 2565,5145 2568,5146 2572,5147 2576,5147 2580,5148 2583,5148 2587,5148 2591,5148 2595,5148 2599,5147 2603,5147 2606,5146 2610,5145 2614,5144 2617,5143 2621,5142 2624,5140 2628,5138 2631,5136 2635,5134 2638,5132 2641,5130 2644,5128 2647,5125 2650,5122 2652,5120 2655,5117 2657,5114 2659,5111 2662,5108 2664,5104 2665,5101 2667,5097 2669,5094 2670,5090 2671,5087 2672,5084 2673,5080 2674,5076 2675,5073 2675,5069 2675,5065 2675,5061 Z"/>
 <path fill="none" stroke="rgb(79,129,189)" stroke-linejoin="round" d="M 2675,5061 L 2675,5057 2675,5054 2675,5050 2674,5046 2673,5042 2672,5038 2671,5035 2670,5031 2669,5028 2667,5024 2665,5021 2664,5017 2662,5014 2659,5011 2657,5008 2655,5005 2652,5002 2650,4999 2647,4996 2644,4994 2641,4991 2638,4989 2635,4987 2631,4985 2628,4983 2624,4981 2621,4980 2617,4979 2614,4977 2610,4976 2606,4975 2603,4975 2599,4974 2595,4974 2591,4973 2587,4973 2583,4973 2580,4974 2576,4974 2572,4975 2568,4975 2565,4976 2561,4977 2557,4979 2554,4980 2550,4981 2547,4983 2543,4985 2540,4987 2537,4989 2534,4991 2531,4994 2528,4996 2525,4999 2522,5002 2520,5005 2517,5008 2515,5011 2513,5014 2511,5017 2509,5021 2508,5024 2506,5028 2505,5031 2503,5035 2502,5038 2501,5042 2501,5046 2500,5050 2500,5054 2499,5057 2499,5061 2499,5065 2500,5069 2500,5073 2501,5076 2501,5080 2502,5084 2503,5087 2505,5090 2506,5094 2508,5097 2509,5101 2511,5104 2513,5108 2515,5111 2517,5114 2520,5117 2522,5120 2525,5122 2528,5125 2531,5128 2534,5130 2537,5132 2540,5134 2543,5136 2547,5138 2550,5140 2554,5142 2557,5143 2561,5144 2565,5145 2568,5146 2572,5147 2576,5147 2580,5148 2583,5148 2587,5148 2591,5148 2595,5148 2599,5147 2603,5147 2606,5146 2610,5145 2614,5144 2617,5143 2621,5142 2624,5140 2628,5138 2631,5136 2635,5134 2638,5132 2641,5130 2644,5128 2647,5125 2650,5122 2652,5120 2655,5117 2657,5114 2659,5111 2662,5108 2664,5104 2665,5101 2667,5097 2669,5094 2670,5090 2671,5087 2672,5084 2673,5080 2674,5076 2675,5073 2675,5069 2675,5065 2675,5061 Z"/>
 <path fill="rgb(79,129,189)" stroke="none" d="M 3388,2036 L 3388,2032 3388,2028 3387,2025 3387,2021 3386,2017 3385,2013 3384,2010 3383,2006 3381,2002 3380,1999 3378,1995 3376,1992 3374,1989 3372,1986 3370,1983 3367,1980 3365,1977 3362,1974 3359,1971 3356,1969 3353,1966 3350,1964 3347,1962 3344,1960 3341,1958 3337,1956 3334,1955 3330,1953 3326,1952 3323,1951 3319,1950 3315,1949 3311,1949 3308,1948 3304,1948 3300,1948 3296,1948 3292,1948 3288,1949 3285,1949 3281,1950 3277,1951 3273,1952 3270,1953 3266,1955 3263,1956 3259,1958 3256,1960 3253,1962 3249,1964 3246,1966 3243,1969 3240,1971 3238,1974 3235,1977 3232,1980 3230,1983 3228,1986 3226,1989 3224,1992 3222,1995 3220,1999 3219,2002 3217,2006 3216,2010 3215,2013 3214,2017 3213,2021 3213,2025 3212,2028 3212,2032 3212,2036 3212,2040 3212,2044 3213,2048 3213,2051 3214,2055 3215,2059 3216,2063 3217,2065 3219,2069 3220,2072 3222,2076 3224,2079 3226,2082 3228,2086 3230,2089 3232,2092 3235,2095 3238,2097 3240,2100 3243,2102 3246,2105 3249,2107 3253,2109 3256,2111 3259,2113 3263,2115 3266,2116 3270,2118 3273,2119 3277,2120 3281,2121 3285,2122 3288,2122 3292,2123 3296,2123 3300,2123 3304,2123 3308,2123 3311,2122 3315,2122 3319,2121 3323,2120 3326,2119 3330,2118 3334,2116 3337,2115 3341,2113 3344,2111 3347,2109 3350,2107 3353,2105 3356,2102 3359,2100 3362,2097 3365,2095 3367,2092 3370,2089 3372,2086 3374,2082 3376,2079 3378,2076 3380,2072 3381,2069 3383,2065 3384,2063 3385,2059 3386,2055 3387,2051 3387,2048 3388,2044 3388,2040 3388,2036 Z"/>
 <path fill="none" stroke="rgb(79,129,189)" stroke-linejoin="round" d="M 3388,2036 L 3388,2032 3388,2028 3387,2025 3387,2021 3386,2017 3385,2013 3384,2010 3383,2006 3381,2002 3380,1999 3378,1995 3376,1992 3374,1989 3372,1986 3370,1983 3367,1980 3365,1977 3362,1974 3359,1971 3356,1969 3353,1966 3350,1964 3347,1962 3344,1960 3341,1958 3337,1956 3334,1955 3330,1953 3326,1952 3323,1951 3319,1950 3315,1949 3311,1949 3308,1948 3304,1948 3300,1948 3296,1948 3292,1948 3288,1949 3285,1949 3281,1950 3277,1951 3273,1952 3270,1953 3266,1955 3263,1956 3259,1958 3256,1960 3253,1962 3249,1964 3246,1966 3243,1969 3240,1971 3238,1974 3235,1977 3232,1980 3230,1983 3228,1986 3226,1989 3224,1992 3222,1995 3220,1999 3219,2002 3217,2006 3216,2010 3215,2013 3214,2017 3213,2021 3213,2025 3212,2028 3212,2032 3212,2036 3212,2040 3212,2044 3213,2048 3213,2051 3214,2055 3215,2059 3216,2063 3217,2065 3219,2069 3220,2072 3222,2076 3224,2079 3226,2082 3228,2086 3230,2089 3232,2092 3235,2095 3238,2097 3240,2100 3243,2102 3246,2105 3249,2107 3253,2109 3256,2111 3259,2113 3263,2115 3266,2116 3270,2118 3273,2119 3277,2120 3281,2121 3285,2122 3288,2122 3292,2123 3296,2123 3300,2123 3304,2123 3308,2123 3311,2122 3315,2122 3319,2121 3323,2120 3326,2119 3330,2118 3334,2116 3337,2115 3341,2113 3344,2111 3347,2109 3350,2107 3353,2105 3356,2102 3359,2100 3362,2097 3365,2095 3367,2092 3370,2089 3372,2086 3374,2082 3376,2079 3378,2076 3380,2072 3381,2069 3383,2065 3384,2063 3385,2059 3386,2055 3387,2051 3387,2048 3388,2044 3388,2040 3388,2036 Z"/>
 <path fill="rgb(79,129,189)" stroke="none" d="M 4102,2313 L 4101,2309 4101,2305 4101,2302 4100,2298 4099,2294 4099,2290 4097,2287 4096,2283 4095,2279 4093,2276 4092,2272 4090,2269 4088,2266 4086,2263 4083,2259 4081,2256 4078,2254 4076,2251 4073,2248 4070,2246 4067,2243 4064,2241 4061,2239 4058,2237 4054,2235 4051,2233 4047,2232 4044,2230 4040,2229 4036,2228 4033,2227 4029,2226 4025,2226 4021,2225 4017,2225 4014,2225 4010,2225 4006,2225 4002,2226 3998,2226 3994,2227 3991,2228 3987,2229 3983,2230 3980,2232 3976,2233 3973,2235 3970,2237 3966,2239 3963,2241 3960,2243 3957,2246 3954,2248 3951,2251 3949,2254 3946,2256 3944,2259 3941,2263 3939,2266 3937,2269 3935,2272 3934,2276 3932,2279 3931,2283 3930,2287 3928,2290 3928,2294 3927,2298 3926,2302 3926,2305 3926,2309 3926,2313 3926,2317 3926,2321 3926,2325 3927,2328 3928,2332 3928,2336 3930,2340 3931,2343 3932,2347 3934,2350 3935,2354 3937,2357 3939,2360 3941,2364 3944,2367 3946,2370 3949,2373 3951,2375 3954,2378 3957,2380 3960,2383 3963,2385 3966,2387 3970,2389 3973,2391 3976,2393 3980,2394 3983,2396 3987,2397 3991,2398 3994,2399 3998,2400 4002,2400 4006,2401 4010,2401 4014,2401 4017,2401 4021,2401 4025,2400 4029,2400 4033,2399 4036,2398 4040,2397 4044,2396 4047,2394 4051,2393 4054,2391 4058,2389 4061,2387 4064,2385 4067,2383 4070,2380 4073,2378 4076,2375 4078,2373 4081,2370 4083,2367 4086,2364 4088,2360 4090,2357 4092,2354 4093,2350 4095,2347 4096,2343 4097,2340 4099,2336 4099,2332 4100,2328 4101,2325 4101,2321 4101,2317 4102,2313 Z"/>
 <path fill="none" stroke="rgb(79,129,189)" stroke-linejoin="round" d="M 4102,2313 L 4101,2309 4101,2305 4101,2302 4100,2298 4099,2294 4099,2290 4097,2287 4096,2283 4095,2279 4093,2276 4092,2272 4090,2269 4088,2266 4086,2263 4083,2259 4081,2256 4078,2254 4076,2251 4073,2248 4070,2246 4067,2243 4064,2241 4061,2239 4058,2237 4054,2235 4051,2233 4047,2232 4044,2230 4040,2229 4036,2228 4033,2227 4029,2226 4025,2226 4021,2225 4017,2225 4014,2225 4010,2225 4006,2225 4002,2226 3998,2226 3994,2227 3991,2228 3987,2229 3983,2230 3980,2232 3976,2233 3973,2235 3970,2237 3966,2239 3963,2241 3960,2243 3957,2246 3954,2248 3951,2251 3949,2254 3946,2256 3944,2259 3941,2263 3939,2266 3937,2269 3935,2272 3934,2276 3932,2279 3931,2283 3930,2287 3928,2290 3928,2294 3927,2298 3926,2302 3926,2305 3926,2309 3926,2313 3926,2317 3926,2321 3926,2325 3927,2328 3928,2332 3928,2336 3930,2340 3931,2343 3932,2347 3934,2350 3935,2354 3937,2357 3939,2360 3941,2364 3944,2367 3946,2370 3949,2373 3951,2375 3954,2378 3957,2380 3960,2383 3963,2385 3966,2387 3970,2389 3973,2391 3976,2393 3980,2394 3983,2396 3987,2397 3991,2398 3994,2399 3998,2400 4002,2400 4006,2401 4010,2401 4014,2401 4017,2401 4021,2401 4025,2400 4029,2400 4033,2399 4036,2398 4040,2397 4044,2396 4047,2394 4051,2393 4054,2391 4058,2389 4061,2387 4064,2385 4067,2383 4070,2380 4073,2378 4076,2375 4078,2373 4081,2370 4083,2367 4086,2364 4088,2360 4090,2357 4092,2354 4093,2350 4095,2347 4096,2343 4097,2340 4099,2336 4099,2332 4100,2328 4101,2325 4101,2321 4101,2317 4102,2313 Z"/>
 <path fill="rgb(79,129,189)" stroke="none" d="M 6479,2754 L 6478,2750 6478,2746 6478,2742 6477,2738 6476,2734 6476,2731 6474,2727 6473,2723 6472,2720 6470,2716 6469,2713 6467,2710 6465,2706 6463,2703 6460,2700 6458,2697 6455,2694 6453,2691 6450,2689 6447,2686 6444,2684 6441,2681 6438,2679 6435,2677 6431,2675 6428,2674 6424,2672 6421,2671 6417,2670 6413,2669 6410,2668 6406,2667 6402,2666 6398,2666 6394,2666 6391,2666 6387,2666 6383,2666 6379,2666 6375,2667 6371,2668 6368,2669 6364,2670 6360,2671 6357,2672 6353,2674 6350,2675 6347,2677 6343,2679 6340,2681 6337,2684 6334,2686 6331,2689 6328,2691 6326,2694 6323,2697 6321,2700 6318,2703 6316,2706 6314,2710 6312,2713 6311,2716 6309,2720 6308,2723 6307,2727 6305,2731 6305,2734 6304,2738 6303,2742 6303,2746 6303,2750 6303,2754 6303,2757 6303,2761 6303,2765 6304,2769 6305,2773 6305,2776 6307,2780 6308,2784 6309,2787 6311,2791 6312,2794 6314,2798 6316,2801 6318,2804 6321,2807 6323,2810 6326,2813 6328,2816 6331,2818 6334,2820 6337,2822 6340,2825 6343,2827 6347,2829 6350,2831 6353,2832 6357,2834 6360,2835 6364,2836 6368,2838 6371,2838 6375,2839 6379,2840 6383,2840 6387,2840 6391,2841 6394,2840 6398,2840 6402,2840 6406,2839 6410,2838 6413,2838 6417,2836 6421,2835 6424,2834 6428,2832 6431,2831 6435,2829 6438,2827 6441,2825 6444,2822 6447,2820 6450,2818 6453,2816 6455,2813 6458,2810 6460,2807 6463,2804 6465,2801 6467,2798 6469,2794 6470,2791 6472,2787 6473,2784 6474,2780 6476,2776 6476,2773 6477,2769 6478,2765 6478,2761 6478,2757 6479,2754 Z"/>
 <path fill="none" stroke="rgb(79,129,189)" stroke-linejoin="round" d="M 6479,2754 L 6478,2750 6478,2746 6478,2742 6477,2738 6476,2734 6476,2731 6474,2727 6473,2723 6472,2720 6470,2716 6469,2713 6467,2710 6465,2706 6463,2703 6460,2700 6458,2697 6455,2694 6453,2691 6450,2689 6447,2686 6444,2684 6441,2681 6438,2679 6435,2677 6431,2675 6428,2674 6424,2672 6421,2671 6417,2670 6413,2669 6410,2668 6406,2667 6402,2666 6398,2666 6394,2666 6391,2666 6387,2666 6383,2666 6379,2666 6375,2667 6371,2668 6368,2669 6364,2670 6360,2671 6357,2672 6353,2674 6350,2675 6347,2677 6343,2679 6340,2681 6337,2684 6334,2686 6331,2689 6328,2691 6326,2694 6323,2697 6321,2700 6318,2703 6316,2706 6314,2710 6312,2713 6311,2716 6309,2720 6308,2723 6307,2727 6305,2731 6305,2734 6304,2738 6303,2742 6303,2746 6303,2750 6303,2754 6303,2757 6303,2761 6303,2765 6304,2769 6305,2773 6305,2776 6307,2780 6308,2784 6309,2787 6311,2791 6312,2794 6314,2798 6316,2801 6318,2804 6321,2807 6323,2810 6326,2813 6328,2816 6331,2818 6334,2820 6337,2822 6340,2825 6343,2827 6347,2829 6350,2831 6353,2832 6357,2834 6360,2835 6364,2836 6368,2838 6371,2838 6375,2839 6379,2840 6383,2840 6387,2840 6391,2841 6394,2840 6398,2840 6402,2840 6406,2839 6410,2838 6413,2838 6417,2836 6421,2835 6424,2834 6428,2832 6431,2831 6435,2829 6438,2827 6441,2825 6444,2822 6447,2820 6450,2818 6453,2816 6455,2813 6458,2810 6460,2807 6463,2804 6465,2801 6467,2798 6469,2794 6470,2791 6472,2787 6473,2784 6474,2780 6476,2776 6476,2773 6477,2769 6478,2765 6478,2761 6478,2757 6479,2754 Z"/>
 <path fill="rgb(79,129,189)" stroke="none" d="M 8856,2084 L 8855,2080 8855,2076 8855,2073 8854,2069 8853,2065 8853,2062 8851,2059 8850,2055 8849,2051 8847,2048 8846,2045 8844,2041 8842,2038 8840,2035 8837,2032 8835,2029 8832,2026 8830,2023 8827,2020 8824,2018 8821,2015 8818,2013 8815,2011 8812,2009 8808,2007 8805,2005 8801,2004 8798,2002 8794,2001 8790,2000 8787,1999 8783,1998 8779,1998 8775,1997 8771,1997 8768,1997 8764,1997 8760,1997 8756,1998 8752,1998 8748,1999 8745,2000 8741,2001 8737,2002 8734,2004 8730,2005 8727,2007 8724,2009 8720,2011 8717,2013 8714,2015 8711,2018 8708,2020 8705,2023 8703,2026 8700,2029 8698,2032 8695,2035 8693,2038 8691,2041 8689,2045 8688,2048 8686,2051 8685,2055 8684,2059 8682,2062 8682,2065 8681,2069 8680,2073 8680,2076 8680,2080 8680,2084 8680,2088 8680,2092 8680,2096 8681,2099 8682,2103 8682,2107 8684,2111 8685,2114 8686,2118 8688,2121 8689,2125 8691,2128 8693,2131 8695,2135 8698,2138 8700,2141 8703,2144 8705,2146 8708,2149 8711,2152 8714,2154 8717,2156 8720,2158 8724,2160 8727,2162 8730,2164 8734,2165 8737,2167 8741,2168 8745,2169 8748,2170 8752,2171 8756,2171 8760,2172 8764,2172 8768,2172 8771,2172 8775,2172 8779,2171 8783,2171 8787,2170 8790,2169 8794,2168 8798,2167 8801,2165 8805,2164 8808,2162 8812,2160 8815,2158 8818,2156 8821,2154 8824,2152 8827,2149 8830,2146 8832,2144 8835,2141 8837,2138 8840,2135 8842,2131 8844,2128 8846,2125 8847,2121 8849,2118 8850,2114 8851,2111 8853,2107 8853,2103 8854,2099 8855,2096 8855,2092 8855,2088 8856,2084 Z"/>
 <path fill="none" stroke="rgb(79,129,189)" stroke-linejoin="round" d="M 8856,2084 L 8855,2080 8855,2076 8855,2073 8854,2069 8853,2065 8853,2062 8851,2059 8850,2055 8849,2051 8847,2048 8846,2045 8844,2041 8842,2038 8840,2035 8837,2032 8835,2029 8832,2026 8830,2023 8827,2020 8824,2018 8821,2015 8818,2013 8815,2011 8812,2009 8808,2007 8805,2005 8801,2004 8798,2002 8794,2001 8790,2000 8787,1999 8783,1998 8779,1998 8775,1997 8771,1997 8768,1997 8764,1997 8760,1997 8756,1998 8752,1998 8748,1999 8745,2000 8741,2001 8737,2002 8734,2004 8730,2005 8727,2007 8724,2009 8720,2011 8717,2013 8714,2015 8711,2018 8708,2020 8705,2023 8703,2026 8700,2029 8698,2032 8695,2035 8693,2038 8691,2041 8689,2045 8688,2048 8686,2051 8685,2055 8684,2059 8682,2062 8682,2065 8681,2069 8680,2073 8680,2076 8680,2080 8680,2084 8680,2088 8680,2092 8680,2096 8681,2099 8682,2103 8682,2107 8684,2111 8685,2114 8686,2118 8688,2121 8689,2125 8691,2128 8693,2131 8695,2135 8698,2138 8700,2141 8703,2144 8705,2146 8708,2149 8711,2152 8714,2154 8717,2156 8720,2158 8724,2160 8727,2162 8730,2164 8734,2165 8737,2167 8741,2168 8745,2169 8748,2170 8752,2171 8756,2171 8760,2172 8764,2172 8768,2172 8771,2172 8775,2172 8779,2171 8783,2171 8787,2170 8790,2169 8794,2168 8798,2167 8801,2165 8805,2164 8808,2162 8812,2160 8815,2158 8818,2156 8821,2154 8824,2152 8827,2149 8830,2146 8832,2144 8835,2141 8837,2138 8840,2135 8842,2131 8844,2128 8846,2125 8847,2121 8849,2118 8850,2114 8851,2111 8853,2107 8853,2103 8854,2099 8855,2096 8855,2092 8855,2088 8856,2084 Z"/>
 <text class="SVGTextShape"><tspan class="TextParagraph" font-family="Calibri, sans-serif" font-size="317px" font-weight="400"><tspan class="TextPosition" x="1557" y="2650"><tspan fill="rgb(89,89,89)" stroke="none" style="white-space: pre">0</tspan></tspan></tspan></text>
 <text class="SVGTextShape"><tspan class="TextParagraph" font-family="Calibri, sans-serif" font-size="317px" font-weight="400"><tspan class="TextPosition" x="2746" y="2650"><tspan fill="rgb(89,89,89)" stroke="none" style="white-space: pre">5</tspan></tspan></tspan></text>
 <text class="SVGTextShape"><tspan class="TextParagraph" font-family="Calibri, sans-serif" font-size="317px" font-weight="400"><tspan class="TextPosition" x="3856" y="2650"><tspan fill="rgb(89,89,89)" stroke="none" style="white-space: pre">10</tspan></tspan></tspan></text>
 <text class="SVGTextShape"><tspan class="TextParagraph" font-family="Calibri, sans-serif" font-size="317px" font-weight="400"><tspan class="TextPosition" x="5044" y="2650"><tspan fill="rgb(89,89,89)" stroke="none" style="white-space: pre">15</tspan></tspan></tspan></text>
 <text class="SVGTextShape"><tspan class="TextParagraph" font-family="Calibri, sans-serif" font-size="317px" font-weight="400"><tspan class="TextPosition" x="6233" y="2650"><tspan fill="rgb(89,89,89)" stroke="none" style="white-space: pre">20</tspan></tspan></tspan></text>
 <text class="SVGTextShape"><tspan class="TextParagraph" font-family="Calibri, sans-serif" font-size="317px" font-weight="400"><tspan class="TextPosition" x="7422" y="2650"><tspan fill="rgb(89,89,89)" stroke="none" style="white-space: pre">25</tspan></tspan></tspan></text>
 <text class="SVGTextShape"><tspan class="TextParagraph" font-family="Calibri, sans-serif" font-size="317px" font-weight="400"><tspan class="TextPosition" x="8610" y="2650"><tspan fill="rgb(89,89,89)" stroke="none" style="white-space: pre">30</tspan></tspan></tspan></text>
 <text class="SVGTextShape"><tspan class="TextParagraph" font-family="Calibri, sans-serif" font-size="317px" font-weight="400"><tspan class="TextPosition" x="9799" y="2650"><tspan fill="rgb(89,89,89)" stroke="none" style="white-space: pre">35</tspan></tspan></tspan></text>
 <text class="SVGTextShape"><tspan class="TextParagraph" font-family="Calibri, sans-serif" font-size="317px" font-weight="400"><tspan class="TextPosition" x="1272" y="8916"><tspan fill="rgb(89,89,89)" stroke="none" style="white-space: pre">-8</tspan></tspan></tspan></text>
 <text class="SVGTextShape"><tspan class="TextParagraph" font-family="Calibri, sans-serif" font-size="317px" font-weight="400"><tspan class="TextPosition" x="1272" y="8100"><tspan fill="rgb(89,89,89)" stroke="none" style="white-space: pre">-7</tspan></tspan></tspan></text>
 <text class="SVGTextShape"><tspan class="TextParagraph" font-family="Calibri, sans-serif" font-size="317px" font-weight="400"><tspan class="TextPosition" x="1272" y="7284"><tspan fill="rgb(89,89,89)" stroke="none" style="white-space: pre">-6</tspan></tspan></tspan></text>
 <text class="SVGTextShape"><tspan class="TextParagraph" font-family="Calibri, sans-serif" font-size="317px" font-weight="400"><tspan class="TextPosition" x="1272" y="6469"><tspan fill="rgb(89,89,89)" stroke="none" style="white-space: pre">-5</tspan></tspan></tspan></text>
 <text class="SVGTextShape"><tspan class="TextParagraph" font-family="Calibri, sans-serif" font-size="317px" font-weight="400"><tspan class="TextPosition" x="1272" y="5654"><tspan fill="rgb(89,89,89)" stroke="none" style="white-space: pre">-4</tspan></tspan></tspan></text>
 <text class="SVGTextShape"><tspan class="TextParagraph" font-family="Calibri, sans-serif" font-size="317px" font-weight="400"><tspan class="TextPosition" x="1272" y="4839"><tspan fill="rgb(89,89,89)" stroke="none" style="white-space: pre">-3</tspan></tspan></tspan></text>
 <text class="SVGTextShape"><tspan class="TextParagraph" font-family="Calibri, sans-serif" font-size="317px" font-weight="400"><tspan class="TextPosition" x="1272" y="4023"><tspan fill="rgb(89,89,89)" stroke="none" style="white-space: pre">-2</tspan></tspan></tspan></text>
 <text class="SVGTextShape"><tspan class="TextParagraph" font-family="Calibri, sans-serif" font-size="317px" font-weight="400"><tspan class="TextPosition" x="1272" y="3208"><tspan fill="rgb(89,89,89)" stroke="none" style="white-space: pre">-1</tspan></tspan></tspan></text>
 <text class="SVGTextShape"><tspan class="TextParagraph" font-family="Calibri, sans-serif" font-size="317px" font-weight="400"><tspan class="TextPosition" x="1378" y="2392"><tspan fill="rgb(89,89,89)" stroke="none" style="white-space: pre">0</tspan></tspan></tspan></text>
 <text class="SVGTextShape"><tspan class="TextParagraph" font-family="Calibri, sans-serif" font-size="317px" font-weight="400"><tspan class="TextPosition" x="1378" y="1577"><tspan fill="rgb(89,89,89)" stroke="none" style="white-space: pre">1</tspan></tspan></tspan></text>
 <text class="SVGTextShape"><tspan class="TextParagraph" font-family="Calibri, sans-serif" font-size="493px" font-weight="400"><tspan class="TextPosition" x="1851" y="856"><tspan fill="rgb(89,89,89)" stroke="none" style="white-space: pre">Desviacin dosis con el tamao de campo - 6FFF</tspan></tspan></tspan></text>
 <path fill="none" stroke="rgb(79,129,189)" stroke-width="53" stroke-linejoin="round" stroke-linecap="round" d="M 10488,4877 L 11286,4877"/>
 <path fill="rgb(79,129,189)" stroke="none" d="M 10982,4877 L 10981,4872 10981,4868 10981,4864 10980,4860 10979,4856 10978,4852 10977,4848 10976,4844 10974,4840 10973,4836 10971,4833 10969,4829 10967,4825 10964,4822 10962,4819 10959,4815 10957,4812 10954,4809 10951,4806 10948,4804 10944,4801 10941,4799 10938,4796 10934,4794 10930,4792 10927,4790 10923,4789 10919,4787 10915,4786 10911,4785 10907,4784 10903,4783 10899,4782 10895,4782 10891,4782 10887,4782 10882,4782 10878,4782 10874,4782 10870,4783 10866,4784 10862,4785 10858,4786 10854,4787 10850,4789 10846,4790 10843,4792 10839,4794 10835,4796 10832,4799 10829,4801 10825,4804 10822,4806 10819,4809 10816,4812 10814,4815 10811,4819 10809,4822 10806,4825 10804,4829 10802,4833 10800,4836 10799,4840 10797,4844 10796,4848 10795,4852 10794,4856 10793,4860 10792,4864 10792,4868 10792,4872 10792,4877 10792,4881 10792,4885 10792,4889 10793,4893 10794,4897 10795,4901 10796,4905 10797,4909 10799,4913 10800,4917 10802,4920 10804,4924 10806,4928 10809,4931 10811,4934 10814,4938 10816,4941 10819,4944 10822,4947 10825,4949 10829,4952 10832,4954 10835,4957 10839,4959 10843,4961 10846,4963 10850,4964 10854,4966 10858,4967 10862,4968 10866,4969 10870,4970 10874,4971 10878,4971 10882,4971 10887,4972 10891,4971 10895,4971 10899,4971 10903,4970 10907,4969 10911,4968 10915,4967 10919,4966 10923,4964 10927,4963 10930,4961 10934,4959 10938,4957 10941,4954 10944,4952 10948,4949 10951,4947 10954,4944 10957,4941 10959,4938 10962,4934 10964,4931 10967,4928 10969,4924 10971,4920 10973,4917 10974,4913 10976,4909 10977,4905 10978,4901 10979,4897 10980,4893 10981,4889 10981,4885 10981,4881 10982,4877 Z"/>
 <path fill="none" stroke="rgb(79,129,189)" stroke-linejoin="round" d="M 10982,4877 L 10981,4872 10981,4868 10981,4864 10980,4860 10979,4856 10978,4852 10977,4848 10976,4844 10974,4840 10973,4836 10971,4833 10969,4829 10967,4825 10964,4822 10962,4819 10959,4815 10957,4812 10954,4809 10951,4806 10948,4804 10944,4801 10941,4799 10938,4796 10934,4794 10930,4792 10927,4790 10923,4789 10919,4787 10915,4786 10911,4785 10907,4784 10903,4783 10899,4782 10895,4782 10891,4782 10887,4782 10882,4782 10878,4782 10874,4782 10870,4783 10866,4784 10862,4785 10858,4786 10854,4787 10850,4789 10846,4790 10843,4792 10839,4794 10835,4796 10832,4799 10829,4801 10825,4804 10822,4806 10819,4809 10816,4812 10814,4815 10811,4819 10809,4822 10806,4825 10804,4829 10802,4833 10800,4836 10799,4840 10797,4844 10796,4848 10795,4852 10794,4856 10793,4860 10792,4864 10792,4868 10792,4872 10792,4877 10792,4881 10792,4885 10792,4889 10793,4893 10794,4897 10795,4901 10796,4905 10797,4909 10799,4913 10800,4917 10802,4920 10804,4924 10806,4928 10809,4931 10811,4934 10814,4938 10816,4941 10819,4944 10822,4947 10825,4949 10829,4952 10832,4954 10835,4957 10839,4959 10843,4961 10846,4963 10850,4964 10854,4966 10858,4967 10862,4968 10866,4969 10870,4970 10874,4971 10878,4971 10882,4971 10887,4972 10891,4971 10895,4971 10899,4971 10903,4970 10907,4969 10911,4968 10915,4967 10919,4966 10923,4964 10927,4963 10930,4961 10934,4959 10938,4957 10941,4954 10944,4952 10948,4949 10951,4947 10954,4944 10957,4941 10959,4938 10962,4934 10964,4931 10967,4928 10969,4924 10971,4920 10973,4917 10974,4913 10976,4909 10977,4905 10978,4901 10979,4897 10980,4893 10981,4889 10981,4885 10981,4881 10982,4877 Z"/>
 <path fill="none" stroke="rgb(192,80,77)" stroke-width="53" stroke-linejoin="round" stroke-linecap="round" d="M 10488,5295 L 11286,5295"/>
 <path fill="rgb(192,80,77)" stroke="none" d="M 10982,5295 L 10981,5290 10981,5286 10981,5282 10980,5278 10979,5274 10978,5270 10977,5266 10976,5262 10974,5258 10973,5254 10971,5251 10969,5247 10967,5243 10964,5240 10962,5237 10959,5233 10957,5230 10954,5227 10951,5224 10948,5222 10944,5219 10941,5217 10938,5214 10934,5212 10930,5210 10927,5208 10923,5207 10919,5205 10915,5204 10911,5203 10907,5202 10903,5201 10899,5200 10895,5200 10891,5200 10887,5200 10882,5200 10878,5200 10874,5200 10870,5201 10866,5202 10862,5203 10858,5204 10854,5205 10850,5207 10846,5208 10843,5210 10839,5212 10835,5214 10832,5217 10829,5219 10825,5222 10822,5224 10819,5227 10816,5230 10814,5233 10811,5237 10809,5240 10806,5243 10804,5247 10802,5251 10800,5254 10799,5258 10797,5262 10796,5266 10795,5270 10794,5274 10793,5278 10792,5282 10792,5286 10792,5290 10792,5295 10792,5299 10792,5303 10792,5307 10793,5311 10794,5315 10795,5319 10796,5323 10797,5327 10799,5331 10800,5335 10802,5338 10804,5342 10806,5346 10809,5349 10811,5352 10814,5356 10816,5359 10819,5362 10822,5365 10825,5367 10829,5370 10832,5372 10835,5375 10839,5377 10843,5379 10846,5381 10850,5382 10854,5384 10858,5385 10862,5386 10866,5387 10870,5388 10874,5389 10878,5389 10882,5389 10887,5390 10891,5389 10895,5389 10899,5389 10903,5388 10907,5387 10911,5386 10915,5385 10919,5384 10923,5382 10927,5381 10930,5379 10934,5377 10938,5375 10941,5372 10944,5370 10948,5367 10951,5365 10954,5362 10957,5359 10959,5356 10962,5352 10964,5349 10967,5346 10969,5342 10971,5338 10973,5335 10974,5331 10976,5327 10977,5323 10978,5319 10979,5315 10980,5311 10981,5307 10981,5303 10981,5299 10982,5295 Z"/>
 <path fill="none" stroke="rgb(192,80,77)" stroke-linejoin="round" d="M 10982,5295 L 10981,5290 10981,5286 10981,5282 10980,5278 10979,5274 10978,5270 10977,5266 10976,5262 10974,5258 10973,5254 10971,5251 10969,5247 10967,5243 10964,5240 10962,5237 10959,5233 10957,5230 10954,5227 10951,5224 10948,5222 10944,5219 10941,5217 10938,5214 10934,5212 10930,5210 10927,5208 10923,5207 10919,5205 10915,5204 10911,5203 10907,5202 10903,5201 10899,5200 10895,5200 10891,5200 10887,5200 10882,5200 10878,5200 10874,5200 10870,5201 10866,5202 10862,5203 10858,5204 10854,5205 10850,5207 10846,5208 10843,5210 10839,5212 10835,5214 10832,5217 10829,5219 10825,5222 10822,5224 10819,5227 10816,5230 10814,5233 10811,5237 10809,5240 10806,5243 10804,5247 10802,5251 10800,5254 10799,5258 10797,5262 10796,5266 10795,5270 10794,5274 10793,5278 10792,5282 10792,5286 10792,5290 10792,5295 10792,5299 10792,5303 10792,5307 10793,5311 10794,5315 10795,5319 10796,5323 10797,5327 10799,5331 10800,5335 10802,5338 10804,5342 10806,5346 10809,5349 10811,5352 10814,5356 10816,5359 10819,5362 10822,5365 10825,5367 10829,5370 10832,5372 10835,5375 10839,5377 10843,5379 10846,5381 10850,5382 10854,5384 10858,5385 10862,5386 10866,5387 10870,5388 10874,5389 10878,5389 10882,5389 10887,5390 10891,5389 10895,5389 10899,5389 10903,5388 10907,5387 10911,5386 10915,5385 10919,5384 10923,5382 10927,5381 10930,5379 10934,5377 10938,5375 10941,5372 10944,5370 10948,5367 10951,5365 10954,5362 10957,5359 10959,5356 10962,5352 10964,5349 10967,5346 10969,5342 10971,5338 10973,5335 10974,5331 10976,5327 10977,5323 10978,5319 10979,5315 10980,5311 10981,5307 10981,5303 10981,5299 10982,5295 Z"/>
 <text class="SVGTextShape"><tspan class="TextParagraph" font-family="Calibri, sans-serif" font-size="317px" font-weight="400"><tspan class="TextPosition" x="11386" y="4956"><tspan fill="rgb(89,89,89)" stroke="none" style="white-space: pre">Arcos</tspan></tspan></tspan></text>
 <text class="SVGTextShape"><tspan class="TextParagraph" font-family="Calibri, sans-serif" font-size="317px" font-weight="400"><tspan class="TextPosition" x="11386" y="5374"><tspan fill="rgb(89,89,89)" stroke="none" style="white-space: pre">Campo a 45</tspan></tspan></tspan></text>
 <text class="SVGTextShape"><tspan class="TextParagraph" font-family="Calibri, sans-serif" font-size="352px" font-weight="400"><tspan class="TextPosition" x="3595" y="9570"><tspan fill="rgb(89,89,89)" stroke="none" style="white-space: pre">Tamao campo cuadrado (cm)</tspan></tspan></tspan></text>
 <text class="SVGTextShape" transform="rotate(-90 821 6077)"><tspan class="TextParagraph" font-family="Calibri, sans-serif" font-size="352px" font-weight="400"><tspan class="TextPosition" x="821" y="6077"><tspan fill="rgb(89,89,89)" stroke="none" style="white-space: pre">Dif. Dosis (%)</tspan></tspan></tspan></text>
</svg>