<?xml version="1.0"?>
 <!-- Created with Inkscape (http://www.inkscape.org/) --> <svg id="svg21" width="44.666" height="44.64" inkscape:version="0.92.5 (2060ec1f9f, 2020-04-08)" sodipodi:docname="sacyl.svg" version="1.1" viewBox="0 0 44.666 44.64" xmlns="http://www.w3.org/2000/svg" xmlns:cc="http://creativecommons.org/ns#" xmlns:dc="http://purl.org/dc/elements/1.1/" xmlns:inkscape="http://www.inkscape.org/namespaces/inkscape" xmlns:rdf="http://www.w3.org/1999/02/22-rdf-syntax-ns#" xmlns:sodipodi="http://sodipodi.sourceforge.net/DTD/sodipodi-0.dtd"> <sodipodi:namedview id="base" bordercolor="#666666" borderopacity="1.0" fit-margin-bottom="0" fit-margin-left="0" fit-margin-right="0" fit-margin-top="0" inkscape:current-layer="layer1" inkscape:cx="101.55165" inkscape:cy="387.21652" inkscape:document-units="mm" inkscape:pageopacity="0.0" inkscape:pageshadow="2" inkscape:window-height="948" inkscape:window-maximized="1" inkscape:window-width="1920" inkscape:window-x="0" inkscape:window-y="27" inkscape:zoom="0.35" pagecolor="#ffffff" showgrid="false"></sodipodi:namedview> <metadata id="metadata18"> <rdf:rdf> <cc:work rdf:about=""> <dc:format>image/svg+xml</dc:format> <dc:type rdf:resource="http://purl.org/dc/dcmitype/StillImage"></dc:type> <dc:title></dc:title> </cc:work> </rdf:rdf> </metadata> <g id="layer1" transform="translate(-78.964 -206.64)" inkscape:groupmode="layer" inkscape:label="Capa 1"> <path id="rect2998" d="m78.964 220.82v15.362h14.974v15.106h15.768v-13.1c-0.99995 0-1.2425 4e-3 -1.8769 4e-3 -8.6351 0-15.635-7.0001-15.635-15.635 0-0.58561 0.0365-1.1674 0.09922-1.7363z" fill="#00007a" inkscape:connector-curvature="0" sodipodi:nodetypes="ccccccsscc"></path> <path id="path3007" d="m108.63 206.64c-8.4137 0-15.23 6.8246-15.23 15.238 0 8.4137 6.8164 15.238 15.23 15.238 4.5552 0 5.6273 0.0579 8.1525 0.0579 3.7836 0 6.8461-3.4292 6.8461-7.6564 0-4.2272-3.0625-7.6564-6.8461-7.6564-0.0798 0-0.16067 5e-3 -0.23977 8e-3v-0.0992h-7.7804v-15.123c-0.0442-2.7e-4 -0.088-8e-3 -0.13229-8e-3z" fill="#529ce7" inkscape:connector-curvature="0" sodipodi:nodetypes="ssssssccccs"></path> </g> </svg> 