<?xml version="1.0"?>
 <!-- Created with Inkscape (http://www.inkscape.org/) --> <svg width="143.41" height="109.36" version="1.1" viewBox="0 0 143.41 109.36" xmlns="http://www.w3.org/2000/svg" xmlns:cc="http://creativecommons.org/ns#" xmlns:dc="http://purl.org/dc/elements/1.1/" xmlns:rdf="http://www.w3.org/1999/02/22-rdf-syntax-ns#"> <defs> <marker id="Arrow2Sstart-1" overflow="visible" orient="auto"> <path transform="matrix(.3 0 0 .3 -.69 0)" d="m8.7186 4.0337-10.926-4.0177 10.926-4.0177c-1.7455 2.3721-1.7354 5.6175-6e-7 8.0354z" fill-rule="evenodd" stroke="#000" stroke-linejoin="round" stroke-width=".625"></path> </marker> <marker id="Arrow2Send-7" overflow="visible" orient="auto"> <path transform="matrix(-.3 0 0 -.3 .69 0)" d="m8.7186 4.0337-10.926-4.0177 10.926-4.0177c-1.7455 2.3721-1.7354 5.6175-6e-7 8.0354z" fill-rule="evenodd" stroke="#000" stroke-linejoin="round" stroke-width=".625"></path> </marker> <marker id="Arrow2Mstart-1" overflow="visible" orient="auto"> <path transform="scale(.6)" d="m8.7186 4.0337-10.926-4.0177 10.926-4.0177c-1.7455 2.3721-1.7354 5.6175-6e-7 8.0354z" fill-rule="evenodd" stroke="#000" stroke-linejoin="round" stroke-width=".625"></path> </marker> <marker id="Arrow2Mend-3" overflow="visible" orient="auto"> <path transform="scale(-.6)" d="m8.7186 4.0337-10.926-4.0177 10.926-4.0177c-1.7455 2.3721-1.7354 5.6175-6e-7 8.0354z" fill-rule="evenodd" stroke="#000" stroke-linejoin="round" stroke-width=".625"></path> </marker> <marker id="Arrow2Sstart" overflow="visible" orient="auto"> <path transform="matrix(.3 0 0 .3 -.69 0)" d="m8.7186 4.0337-10.926-4.0177 10.926-4.0177c-1.7455 2.3721-1.7354 5.6175-6e-7 8.0354z" fill-rule="evenodd" stroke="#000" stroke-linejoin="round" stroke-width=".625"></path> </marker> <marker id="Arrow2Send" overflow="visible" orient="auto"> <path transform="matrix(-.3 0 0 -.3 .69 0)" d="m8.7186 4.0337-10.926-4.0177 10.926-4.0177c-1.7455 2.3721-1.7354 5.6175-6e-7 8.0354z" fill-rule="evenodd" stroke="#000" stroke-linejoin="round" stroke-width=".625"></path> </marker> <marker id="Arrow2Mstart" overflow="visible" orient="auto"> <path transform="scale(.6)" d="m8.7186 4.0337-10.926-4.0177 10.926-4.0177c-1.7455 2.3721-1.7354 5.6175-6e-7 8.0354z" fill-rule="evenodd" stroke="#000" stroke-linejoin="round" stroke-width=".625"></path> </marker> <marker id="Arrow2Mend" overflow="visible" orient="auto"> <path transform="scale(-.6)" d="m8.7186 4.0337-10.926-4.0177 10.926-4.0177c-1.7455 2.3721-1.7354 5.6175-6e-7 8.0354z" fill-rule="evenodd" stroke="#000" stroke-linejoin="round" stroke-width=".625"></path> </marker> </defs> <metadata> <rdf:rdf> <cc:work rdf:about=""> <dc:format>image/svg+xml</dc:format> <dc:type rdf:resource="http://purl.org/dc/dcmitype/StillImage"></dc:type> <dc:title></dc:title> </cc:work> </rdf:rdf> </metadata> <g transform="translate(-25.467 -16.677)"> <g fill="#1771dd" stroke="#69e625" stroke-linecap="square" stroke-width=".8544"> <rect x="50.969" y="62.465" width="59.562" height="27.629" opacity=".209" stroke-dasharray="3.41760035, 3.41760035" style="paint-order:fill markers stroke"></rect> <rect x="50.969" y="96.676" width="59.562" height="27.629" opacity=".209" stroke-dasharray="3.41760039, 3.41760039" style="paint-order:fill markers stroke"></rect> <rect x="50.969" y="28.255" width="59.562" height="27.629" opacity=".209" stroke-dasharray="3.41760039, 3.41760039" style="paint-order:fill markers stroke"></rect> </g> <path d="m114.61 22.659 0.14862 33.6h50.975" fill="none" marker-end="url(#Arrow2Mend)" marker-start="url(#Arrow2Mstart)" stroke="#000" stroke-width=".48667"></path> <g fill="#48e415" stroke="#000" stroke-linecap="square" stroke-miterlimit="1"> <g stroke-width=".41971"> <rect x="118.97" y="29.185" width="3.236" height="27.076" rx="0" ry="0" style="paint-order:fill markers stroke"></rect> <rect x="128.68" y="29.089" width="3.236" height="27.076" rx="0" ry="0" style="paint-order:fill markers stroke"></rect> <rect x="138.55" y="29.233" width="3.236" height="27.076" rx="0" ry="0" style="paint-order:fill markers stroke"></rect> </g> <rect x="148.26" y="29.137" width="3.236" height="27.076" rx="0" ry="0" stroke-width=".41971" style="paint-order:fill markers stroke"></rect> <rect x="158.29" y="29.188" width="3.236" height="27.076" rx="0" ry="0" stroke-width=".41971" style="paint-order:fill markers stroke"></rect> </g> <g> <flowroot transform="matrix(.11326 0 0 .13442 101.5 18.318)" fill="#000000" font-family="Sans" font-size="40px" letter-spacing="0px" stroke-width="1px" word-spacing="0px" style="line-height:125%" xml:space="preserve"><flowregion><rect x="575" y="257.27" width="64.286" height="112.14"></rect></flowregion><flowpara>t</flowpara></flowroot> <flowroot transform="matrix(.11326 0 0 .13442 102.63 14.286)" fill="#000000" font-family="Sans" font-size="40px" letter-spacing="0px" stroke-width="1px" word-spacing="0px" style="line-height:125%" xml:space="preserve"><flowregion><rect x="65.714" y="11.558" width="55.714" height="47.143"></rect></flowregion><flowpara>W</flowpara></flowroot> <path d="m122.21 25.537h6.2292" fill="none" marker-end="url(#Arrow2Send)" marker-start="url(#Arrow2Sstart)" stroke="#000" stroke-width=".32644"></path> <text transform="scale(.91792 1.0894)" x="133.82692" y="21.421322" fill="#000000" font-family="Sans" font-size="4.9355px" letter-spacing="0px" stroke-width=".12339px" word-spacing="0px" style="line-height:125%" xml:space="preserve"><tspan x="133.82692" y="21.421322">Δt<tspan baseline-shift="sub" font-size="3.2081px" stroke-width=".12339px">R</tspan></tspan><tspan x="133.82692" y="28.039371"></tspan><tspan x="133.82692" y="34.208698"></tspan></text> <path d="m114.61 91.176 0.14862 33.599h50.975" fill="none" marker-end="url(#Arrow2Mend-3)" marker-start="url(#Arrow2Mstart-1)" stroke="#000" stroke-width=".48667"></path> </g> <g fill="#1771dd" stroke="#000" stroke-linecap="square" stroke-miterlimit="1"> <rect x="118.97" y="97.703" width="3.236" height="27.076" rx="0" ry="0" stroke-width=".41971" style="paint-order:fill markers stroke"></rect> <rect x="138.55" y="97.751" width="3.236" height="27.076" rx="0" ry="0" stroke-width=".41971" style="paint-order:fill markers stroke"></rect> <rect x="158.28" y="97.705" width="3.236" height="27.076" rx="0" ry="0" stroke-width=".41971" style="paint-order:fill markers stroke"></rect> </g> <g> <flowroot transform="matrix(.11326 0 0 .13442 102.08 86.291)" fill="#000000" font-family="Sans" font-size="40px" letter-spacing="0px" stroke-width="1px" word-spacing="0px" style="line-height:125%" xml:space="preserve"><flowregion><rect x="575" y="257.27" width="64.286" height="112.14"></rect></flowregion><flowpara>t</flowpara></flowroot> <path d="m122.79 94.054h14.142" fill="none" marker-end="url(#Arrow2Send-7)" marker-start="url(#Arrow2Sstart-1)" stroke="#000" stroke-width=".49187"></path> <text transform="scale(.91792 1.0894)" x="134.01549" y="84.510727" fill="#000000" font-family="Sans" font-size="4.9355px" letter-spacing="0px" stroke-width=".12339px" word-spacing="0px" style="line-height:125%" xml:space="preserve"><tspan x="134.01549" y="84.510727">Δt<tspan baseline-shift="sub" font-size="3.2081px" stroke-width=".12339px">D</tspan></tspan><tspan x="134.01549" y="91.128777"></tspan><tspan x="134.01549" y="97.298103"></tspan></text> <path d="m114.43 97.402h53.814" fill="none" stroke="#000" stroke-dasharray="2.61792297, 2.61792297" stroke-width=".65448"></path> </g> <g transform="matrix(.33844 0 0 .41691 81.872 48.226)"> <g id="content" transform="matrix(.3 0 0 -.3 -52.5 222.75)" fill-rule="evenodd" stroke="#000" stroke-miterlimit="10.433" stroke-width="0" xml:space="preserve"><path d="m477.2 449.49v0.12l-0.01 0.13-0.02 0.12-0.02 0.13-0.06 0.24-0.04 0.12-0.05 0.12-0.05 0.11-0.06 0.12-0.06 0.11-0.07 0.1-0.07 0.11-0.16 0.2-0.08 0.09-0.1 0.09-0.09 0.09-0.2 0.16-0.22 0.14-0.11 0.06-0.12 0.06-0.12 0.05-0.13 0.04-0.12 0.04-0.13 0.03-0.14 0.03-0.13 0.01-0.14 0.02h-0.14c-1.68 0-2.68-1.39-2.68-2.64 0-1.35 1.14-2.64 2.64-2.64 1.68 0 2.68 1.39 2.68 2.64z"></path><path d="m457.27 440.23v-1.55h1.19c3.84 0 3.93-0.54 3.93-2.34v-26.25c0-1.8-0.09-2.34-3.93-2.34h-1.19v-1.55h18.23l-1.34 1.55h-5.05c-2.32 0-2.43 0.34-2.43 1.98v26.95c0 1.66 0.11 2 2.43 2h4.99c3.09 0 6.53-1.09 9.08-4.64 2.14-2.93 2.57-7.22 2.57-11.11 0-5.53-0.93-8.51-2.73-10.95-1-1.34-3.83-4.23-8.86-4.23l1.34-1.55c8.36 0 15.24 7.37 15.24 16.73 0 9.47-6.72 17.3-15.24 17.3z"></path></g> </g> <g fill="#000000" font-family="Sans" letter-spacing="0px" word-spacing="0px"> <text x="80.601891" y="37.614571" font-size="7.0556px" stroke-width=".26458px" text-anchor="middle" style="line-height:125%" xml:space="preserve"><tspan x="80.601891" y="37.614571" text-align="center">PULSO</tspan><tspan x="80.601891" y="51.760132" text-align="center">RF</tspan></text> <text x="80.601883" y="105.98561" font-size="7.0556px" stroke-width=".26458px" text-anchor="middle" style="line-height:125%" xml:space="preserve"><tspan x="80.601883" y="105.98561" text-align="center">PULSO</tspan><tspan x="80.601883" y="120.13117" text-align="center">DOSIS</tspan></text> <text transform="scale(.75579 1.3231)" x="69.400185" y="60.481499" font-size="6.1994px" stroke-width=".17471px" style="line-height:125%" xml:space="preserve"><tspan x="69.400185" y="60.481499">INYECCIÓN</tspan><tspan x="69.400185" y="69.421745"></tspan></text> <g stroke-width=".37685px"> <text transform="matrix(0 -.58591 1.7068 0 0 0)" x="-95.496742" y="27.23572" font-size="15.074px" style="line-height:125%" xml:space="preserve"><tspan x="-95.496742" y="27.23572" font-size="7.0346px" stroke-width=".37685px">MODULADOR</tspan></text> <text transform="matrix(0 -.58591 1.7068 0 0 0)" x="-130.33961" y="21.444134" font-size="7.0346px" text-anchor="middle" style="line-height:33.50000083%" xml:space="preserve"><tspan x="-130.33961" y="21.444134" text-align="center" style="line-height:33.50000083%">CAÑÓN</tspan><tspan x="-130.33961" y="27.23572" text-align="center" style="line-height:33.50000083%">ELECTRONES</tspan></text> <text transform="matrix(0 -.58591 1.7068 0 0 0)" x="-188.89671" y="21.444134" font-size="7.0346px" text-anchor="middle" style="line-height:33.50000083%" xml:space="preserve"><tspan x="-188.89671" y="21.444134" text-align="center" style="line-height:33.50000083%">CÁMARA</tspan><tspan x="-188.89671" y="27.23572" text-align="center" style="line-height:33.50000083%">MONITORA</tspan></text> </g> </g> <g transform="matrix(.49629 0 0 .68396 106.64 36.136)" fill="#000096"> <rect x="-45.404" y="39.164" width="4.5357" height="25.891" style="paint-order:fill markers stroke"></rect> <path transform="matrix(.61895 0 0 1.0267 -10.8 -11.62)" d="m-52.396 88.49-8.1834-14.174 16.367-1e-6z" style="paint-order:fill markers stroke"></path> </g> <g transform="matrix(.49629 0 0 .68396 141.98 36.136)" fill="#000096"> <rect x="-45.404" y="39.164" width="4.5357" height="25.891" style="paint-order:fill markers stroke"></rect> <path transform="matrix(.61895 0 0 1.0267 -10.8 -11.62)" d="m-52.396 88.49-8.1834-14.174 16.367-1e-6z" style="paint-order:fill markers stroke"></path> </g> <g transform="matrix(.49629 0 0 .68396 161.64 36.136)" fill="#000096"> <rect x="-45.404" y="39.164" width="4.5357" height="25.891" style="paint-order:fill markers stroke"></rect> <path transform="matrix(.61895 0 0 1.0267 -10.8 -11.62)" d="m-52.396 88.49-8.1834-14.174 16.367-1e-6z" style="paint-order:fill markers stroke"></path> </g> <g transform="matrix(.49629 0 0 .68396 181.29 36.136)" fill="#000096"> <rect x="-45.404" y="39.164" width="4.5357" height="25.891" style="paint-order:fill markers stroke"></rect> <path transform="matrix(.61895 0 0 1.0267 -10.8 -11.62)" d="m-52.396 88.49-8.1834-14.174 16.367-1e-6z" style="paint-order:fill markers stroke"></path> </g> </g> </svg> 