<?xml version="1.0"?>
 <!-- Created with Inkscape (http://www.inkscape.org/) --> <svg xmlns:dc="http://purl.org/dc/elements/1.1/" xmlns:cc="http://creativecommons.org/ns#" xmlns:rdf="http://www.w3.org/1999/02/22-rdf-syntax-ns#" xmlns:svg="http://www.w3.org/2000/svg" xmlns="http://www.w3.org/2000/svg" xmlns:sodipodi="http://sodipodi.sourceforge.net/DTD/sodipodi-0.dtd" xmlns:inkscape="http://www.inkscape.org/namespaces/inkscape" width="337.31787" height="168.71875" id="svg2" version="1.1" inkscape:version="0.48.2 r9819" sodipodi:docname="Sacyl.svg" viewBox="0 0 337.31787 168.71875"> <defs id="defs4"></defs> <sodipodi:namedview id="base" pagecolor="#ffffff" bordercolor="#666666" borderopacity="1.0" inkscape:pageopacity="0.0" inkscape:pageshadow="2" inkscape:zoom="0.98994949" inkscape:cx="112.95422" inkscape:cy="150.06878" inkscape:document-units="px" inkscape:current-layer="layer1" showgrid="false" fit-margin-top="0" fit-margin-left="0" fit-margin-right="0" fit-margin-bottom="0" inkscape:window-width="1152" inkscape:window-height="811" inkscape:window-x="-8" inkscape:window-y="-8" inkscape:window-maximized="1"></sodipodi:namedview> <metadata id="metadata7"> <rdf:rdf> <cc:work rdf:about=""> <dc:format>image/svg+xml</dc:format> <dc:type rdf:resource="http://purl.org/dc/dcmitype/StillImage"></dc:type> <dc:title></dc:title> </cc:work> </rdf:rdf> </metadata> <g inkscape:label="Capa 1" inkscape:groupmode="layer" id="layer1" transform="translate(-174.74492,-566.96875)"> <path style="fill:#00007a;fill-opacity:1;stroke:none" d="m 174.74492,620.53125 0,58.0625 56.59375,0 0,57.09375 59.59375,0 0,-49.51339 c -3.77934,0 -4.6962,0.0134 -7.09375,0.0134 -32.63667,0 -59.09375,-26.45708 -59.09375,-59.09375 0,-2.21333 0.13796,-4.41233 0.375,-6.5625 z" id="rect2998" inkscape:connector-curvature="0" sodipodi:nodetypes="ccccccsscc"></path> <path style="fill:#529ce7;fill-opacity:1;stroke:none" d="m 286.875,566.96875 c -31.79983,0 -57.5625,25.79392 -57.5625,57.59375 0,31.79983 25.76267,57.59375 57.5625,57.59375 17.21636,0 21.26846,0.21875 30.8125,0.21875 14.30023,0 25.875,-12.96069 25.875,-28.9375 0,-15.97681 -11.57477,-28.9375 -25.875,-28.9375 -0.30146,0 -0.60728,0.0198 -0.90625,0.0312 l 0,-0.375 -29.40625,0 0,-57.15625 c -0.16719,-10e-4 -0.33247,-0.0312 -0.5,-0.0312 z" id="path3007" inkscape:connector-curvature="0" sodipodi:nodetypes="ssssssccccs"></path> <g transform="scale(1.0055275,0.99450289)" style="font-size:65.28508759px;font-style:normal;font-variant:normal;font-weight:normal;font-stretch:normal;text-align:start;line-height:125%;letter-spacing:0px;word-spacing:0px;writing-mode:lr-tb;text-anchor:start;fill:#00007a;fill-opacity:1;stroke:none;font-family:Eras Demi ITC;-inkscape-font-specification:Eras Demi ITC" id="text3018"> <path d="m 359.7744,678.36028 c -0.17001,-3.23025 -0.39316,-5.86545 -0.66943,-7.90561 4.16532,1.8914 7.94811,2.8371 11.34839,2.83709 1.36009,1e-5 2.62988,-0.2072 3.80936,-0.62161 1.17945,-0.4144 2.05076,-0.99882 2.61395,-1.75326 0.56315,-0.75443 0.84473,-1.59918 0.84476,-2.53426 -3e-5,-0.72255 -0.12754,-1.37072 -0.38253,-1.94453 -0.38255,-0.78629 -1.0201,-1.60448 -1.91265,-2.45456 -1.23262,-1.16883 -3.43216,-3.0921 -6.59864,-5.76983 -1.50888,-1.29633 -2.55021,-2.22077 -3.124,-2.77334 -1.2751,-1.21132 -2.25268,-2.30046 -2.93272,-3.26744 -0.68006,-0.96692 -1.16885,-1.92856 -1.46637,-2.88491 -0.29753,-0.9563 -0.44629,-1.97638 -0.44628,-3.06024 -1e-5,-1.99762 0.55785,-3.87308 1.67356,-5.62638 1.11571,-1.75322 2.78396,-3.12395 5.00477,-4.11219 2.22078,-0.98816 5.02069,-1.48226 8.39972,-1.48231 3.03896,5e-5 6.46047,0.37195 10.26455,1.11572 0.10623,2.21021 0.31874,4.73915 0.63755,7.58684 -3.31529,-1.27507 -6.37552,-1.91261 -9.18072,-1.91265 -2.08268,4e-5 -3.78812,0.47288 -5.11634,1.41855 -1.32824,0.94573 -1.99235,2.0455 -1.99234,3.29932 -1e-5,0.34005 0.0425,0.69602 0.12751,1.06789 0.085,0.37194 0.2125,0.73321 0.38253,1.08384 0.17,0.35068 0.47284,0.80759 0.90851,1.37073 0.43564,0.56319 1.07319,1.222 1.91265,1.9764 0.83942,0.75446 1.55666,1.36545 2.15173,1.83296 l 4.43097,3.57027 c 0.9988,0.82884 1.89137,1.6364 2.67771,2.42269 0.78628,0.78633 1.46102,1.54077 2.02422,2.26331 0.56314,0.72257 1.00411,1.41325 1.32291,2.07203 0.31875,0.65882 0.55783,1.33356 0.71725,2.02422 0.15935,0.69069 0.23905,1.41856 0.23908,2.18361 -3e-5,1.78515 -0.41444,3.46934 -1.24322,5.05258 -0.82885,1.58325 -2.01894,2.88492 -3.57028,3.90499 -1.5514,1.02008 -3.25153,1.7267 -5.1004,2.11986 -1.84891,0.39315 -3.80406,0.58973 -5.86546,0.58973 -1.36012,0 -2.94336,-0.11689 -4.74974,-0.35065 -1.8064,-0.23377 -4.18658,-0.68006 -7.14056,-1.33886 z" style="" id="path2987"></path> <path d="m 396.306,653.97401 c 0.29752,-1.5301 0.48347,-2.6033 0.55786,-3.21963 0.0744,-0.61627 0.20719,-1.55134 0.39846,-2.80522 2.89022,-0.68002 5.44042,-1.15818 7.6506,-1.43448 2.21016,-0.27624 4.34595,-0.41438 6.40737,-0.41441 2.33766,3e-5 4.48408,0.27099 6.43926,0.81287 1.95512,0.54195 3.48524,1.40796 4.59035,2.59802 1.10506,1.19012 1.6576,2.90088 1.65763,5.13227 -3e-5,1.21137 -0.17004,4.29817 -0.51004,9.26041 -0.34006,4.96228 -0.54195,10.08923 -0.60567,15.38089 -1.61516,-0.0425 -3.10277,-0.0638 -4.46285,-0.0638 -1.29637,0 -2.81587,0.0213 -4.55848,0.0638 0.27625,-2.57145 0.49939,-5.54668 0.66943,-8.9257 l 0.41441,-7.93749 c -0.80759,0.53131 -1.42389,0.90321 -1.8489,1.11571 -0.42505,0.21253 -0.90321,0.40911 -1.43448,0.58974 -0.53131,0.18065 -1.46639,0.45692 -2.80522,0.82881 -1.33887,0.37192 -2.41208,0.69601 -3.21963,0.97226 -0.80757,0.27629 -1.53544,0.58975 -2.18361,0.94039 -0.64818,0.35066 -1.19541,0.74382 -1.64169,1.17947 -0.44629,0.43567 -0.77038,0.89258 -0.97226,1.37073 -0.2019,0.47817 -0.30284,0.99352 -0.30284,1.54606 0,0.89257 0.26033,1.66294 0.781,2.31111 0.52066,0.64818 1.17415,1.09978 1.96047,1.3548 0.7863,0.25502 1.71074,0.38253 2.77334,0.38253 0.68004,0 1.39728,-0.0531 2.15173,-0.15939 0.75442,-0.10626 1.76918,-0.3719 3.0443,-0.79694 -0.44631,1.21135 -0.96697,3.01774 -1.562,5.41917 -1.50888,0.25502 -2.7096,0.41441 -3.60215,0.47817 -0.89259,0.0638 -1.7214,0.0956 -2.48645,0.0956 -2.67772,0 -4.87726,-0.36128 -6.59864,-1.08384 -1.72138,-0.72255 -2.99117,-1.87014 -3.80936,-3.44276 -0.81819,-1.57262 -1.22728,-3.15587 -1.22728,-4.74975 0,-0.91381 0.15939,-1.81701 0.47816,-2.70959 0.31878,-0.89255 0.78631,-1.71074 1.40261,-2.45456 0.6163,-0.7438 1.41323,-1.46104 2.39081,-2.15173 0.97757,-0.69066 2.39081,-1.36009 4.23971,-2.00828 1.84888,-0.64816 4.29282,-1.30165 7.33182,-1.96047 0.80755,-0.16999 1.64699,-0.3772 2.51832,-0.62161 0.8713,-0.24437 1.56729,-0.48345 2.08798,-0.71724 0.52064,-0.23375 0.97224,-0.53659 1.35479,-0.90851 0.38251,-0.37188 0.66409,-0.75973 0.84475,-1.16353 0.18062,-0.40376 0.27094,-0.81816 0.27096,-1.24322 -2e-5,-0.82879 -0.27098,-1.53009 -0.81287,-2.10392 -0.54194,-0.57376 -1.24325,-0.97223 -2.10392,-1.1954 -0.86071,-0.22312 -1.81172,-0.33469 -2.85303,-0.33471 -3.86782,2e-5 -8.1394,0.92447 -12.81475,2.77334 z" style="" id="path2989"></path> <path d="m 456.23567,671.92103 c -0.10628,0.87132 -0.26567,1.85953 -0.47816,2.96461 -0.21254,1.10509 -0.43568,2.47582 -0.66943,4.11219 -3.03901,0.70131 -6.03549,1.05196 -8.98945,1.05196 -1.7214,0 -3.37902,-0.15939 -4.97288,-0.47816 -1.59389,-0.31878 -3.07619,-0.88726 -4.44691,-1.70545 -1.37074,-0.81819 -2.57677,-1.89671 -3.6181,-3.23556 -1.04133,-1.33885 -1.82233,-2.95929 -2.34299,-4.86132 -0.52067,-1.90201 -0.781,-3.86248 -0.781,-5.8814 0,-2.67769 0.43034,-5.24913 1.29104,-7.71435 0.86069,-2.46516 2.11985,-4.47876 3.77748,-6.04078 1.65762,-1.56197 3.5012,-2.62455 5.53074,-3.18775 2.02952,-0.56313 4.28751,-0.84472 6.77397,-0.84475 1.38134,3e-5 2.80519,0.0797 4.27158,0.23908 1.46634,0.15942 3.19835,0.48351 5.19603,0.97226 l 0.47816,6.98117 c -3.16652,-1.08381 -5.92923,-1.62572 -8.28814,-1.62575 -1.44513,3e-5 -2.81055,0.24442 -4.09626,0.73318 -1.28574,0.48882 -2.39082,1.25919 -3.31526,2.31112 -0.92446,1.05198 -1.58326,2.26864 -1.9764,3.64997 -0.39317,1.38138 -0.58975,2.79461 -0.58973,4.23971 -2e-5,2.01892 0.31345,3.76686 0.94038,5.24384 0.62691,1.477 1.70543,2.61928 3.23557,3.42683 1.5301,0.80757 3.27273,1.21135 5.2279,1.21135 0.95631,0 2.11983,-0.12219 3.49059,-0.36659 1.3707,-0.24439 2.82113,-0.64286 4.35127,-1.19541 z" style="" id="path2991"></path> <path d="m 458.72211,693.94837 c -0.38253,-3.18776 -0.69067,-5.48293 -0.92444,-6.88553 2.04016,0.95631 3.96343,1.43447 5.76982,1.43448 0.55254,-10e-6 1.11571,-0.0691 1.68951,-0.2072 0.57379,-0.13815 1.10508,-0.33472 1.59387,-0.58974 0.31877,-0.17002 0.64286,-0.41441 0.97227,-0.73318 0.32939,-0.31878 0.78098,-0.9032 1.35479,-1.75326 0.57378,-0.85007 1.0732,-1.68951 1.49824,-2.51832 0.34002,-0.70131 0.69067,-1.58325 1.05196,-2.64583 l -6.63052,-19.41339 -4.84538,-13.77107 c 2.23142,0.0425 3.83592,0.0638 4.8135,0.0638 1.12633,3e-5 2.60332,-0.0212 4.43097,-0.0638 0.44628,1.76392 0.86068,3.29403 1.24323,4.59036 l 3.02836,10.00953 c 0.93505,3.0815 1.60448,5.39793 2.00828,6.94929 0.255,1.02009 0.55252,2.36957 0.89257,4.04844 0.63753,-1.93389 1.19007,-3.50652 1.65763,-4.71787 0.82879,-2.21016 1.98701,-5.16414 3.47464,-8.86194 l 3.09212,-7.61872 c 0.55252,-1.36008 1.11568,-2.82644 1.6895,-4.39909 1.91262,0.0425 3.36836,0.0638 4.36722,0.0638 0.91379,3e-5 2.44391,-0.0212 4.59036,-0.0638 l -12.27283,27.51027 -5.32354,12.14532 c -0.74383,1.57261 -1.45576,2.79458 -2.13579,3.66591 -0.55256,0.74379 -1.15824,1.38134 -1.81702,1.91265 -0.63757,0.51002 -1.31762,0.93506 -2.04016,1.2751 -0.91383,0.42502 -1.90203,0.76504 -2.96461,1.02008 -1.21135,0.255 -2.43332,0.38251 -3.66591,0.38253 -0.70131,-2e-5 -1.67888,-0.0638 -2.93273,-0.19127 -1.25385,-0.12752 -2.47581,-0.34004 -3.66591,-0.63755 z" style="" id="path2993"></path> <path d="m 497.93142,679.28473 c 0.31877,-3.59153 0.70661,-10.04671 1.16353,-19.36557 0.4569,-9.31883 0.73849,-17.36788 0.84475,-24.1472 2.21016,0.0426 3.78279,0.0638 4.71787,0.0638 1.25383,4e-5 2.78395,-0.0212 4.59035,-0.0638 l -0.76505,11.63528 -1.11572,25.94828 -0.12751,5.92921 c -1.74264,-0.0425 -3.21963,-0.0638 -4.43097,-0.0638 -0.40379,0 -2.02954,0.0213 -4.87725,0.0638 z" style="" id="path2995"></path> </g> </g> </svg> 